<?xml version="1.0" encoding="UTF-8"?>
<svg xmlns="http://www.w3.org/2000/svg" viewBox="0 0 2400 1600" width="100%" height="100%">
  <defs>
    <linearGradient id="bg-grad" x1="0%" y1="0%" x2="100%" y2="100%">
      <stop offset="0%" stop-color="#18181D"/>
      <stop offset="100%" stop-color="#0E0E12"/>
    </linearGradient>
    <filter id="shadow" x="-10%" y="-10%" width="120%" height="120%">
      <feDropShadow dx="0" dy="10" stdDeviation="12" flood-color="#000000" flood-opacity="0.6"/>
    </filter>
  </defs>

  <style>
    @import url('https://fonts.googleapis.com/css2?family=Cinzel:wght@600;700&amp;family=Montserrat:wght@500;600;700&amp;display=swap');
    .title { font-family: 'Cinzel', serif; font-size: 32px; font-weight: 700; fill: #FFFFFF; letter-spacing: 0.3em; text-anchor: middle; }
    .subtitle { font-family: 'Montserrat', sans-serif; font-size: 14px; font-weight: 600; fill: #94A3B8; letter-spacing: 0.4em; text-anchor: middle; }
    .section-label { font-family: 'Cinzel', serif; font-size: 16px; font-weight: 700; fill: #E2E8F0; letter-spacing: 0.25em; }
    .label-dark { font-family: 'Cinzel', serif; font-size: 16px; font-weight: 700; fill: #18181B; letter-spacing: 0.25em; }
    .wm-black { font-family: 'Cinzel', serif; font-size: 44px; font-weight: 700; fill: #000000; letter-spacing: 0.28em; text-anchor: middle; }
    .tg-black { font-family: 'Montserrat', sans-serif; font-size: 12px; font-weight: 600; fill: #000000; letter-spacing: 0.55em; text-anchor: middle; }
    .wm-white { font-family: 'Cinzel', serif; font-size: 44px; font-weight: 700; fill: #FFFFFF; letter-spacing: 0.28em; text-anchor: middle; }
    .tg-white { font-family: 'Montserrat', sans-serif; font-size: 12px; font-weight: 600; fill: #FFFFFF; letter-spacing: 0.55em; text-anchor: middle; }
  </style>

  <!-- Sheet Background -->
  <rect width="2400" height="1600" fill="url(#bg-grad)"/>

  <!-- Top Header -->
  <line x1="100" y1="50" x2="2300" y2="50" stroke="#94A3B8" stroke-width="1" opacity="0.3"/>
  <text x="1200" y="95" class="title">RADMAN SILVER — REFINED V2 LOGO SYSTEM REVIEW SHEET</text>
  <text x="1200" y="125" class="subtitle">HAUTE JOAILLERIE FRENCH SERIF • PERSIAN SHAMSA HERITAGE • MAXIMUM LAUNCH USABILITY</text>
  <line x1="100" y1="150" x2="2300" y2="150" stroke="#94A3B8" stroke-width="1" opacity="0.3"/>

  <!-- ========================================== -->
  <!-- SECTION 1: WHITE BACKGROUND SIDE-BY-SIDE -->
  <!-- ========================================== -->
  <g transform="translate(100, 190)">
    <text x="20" y="0" class="section-label">1. WHITE BACKGROUND PERFORMANCE (ALL 4 DIRECTIONS)</text>
    <g transform="translate(0, 25)" filter="url(#shadow)">
      <rect width="1070" height="520" rx="12" fill="#FFFFFF"/>
      <rect x="20" y="20" width="1030" height="480" rx="8" fill="none" stroke="#E2E8F0" stroke-width="2"/>
    </g>

    <!-- Inside White Card -->
    <!-- Dir A: Pure Wordmark -->
    <g transform="translate(260, 95)">
      <text x="0" y="-30" class="label-dark" style="font-size: 12px; text-anchor: middle; fill: #71717A;">DIR A — PURE WORDMARK</text>
      <text x="0" y="10" class="wm-black">RADMAN</text>
      <text x="0" y="45" class="tg-black">SILVER 925</text>
    </g>

    <!-- Dir B: Wordmark + Ornament -->
    <g transform="translate(260, 330)">
      <text x="0" y="-45" class="label-dark" style="font-size: 12px; text-anchor: middle; fill: #71717A;">DIR B — WORDMARK + MINIMAL ORNAMENT</text>
      <text x="0" y="0" class="wm-black">RADMAN</text>
      <g transform="translate(0, 38)" fill="#000000" stroke="#000000">
        <path d="M -70,0 L -25,0" stroke-width="2" stroke-linecap="round" fill="none"/>
        <circle cx="-70" cy="0" r="2"/>
        <polygon points="0,-10 3,-3 10,0 3,3 0,10 -3,3 -10,0 -3,-3" stroke-width="1"/>
        <polygon points="0,-7 5,-5 7,0 5,5 0,7 -5,5 -7,0 -5,-5" fill="none" stroke-width="1.5"/>
        <path d="M 25,0 L 70,0" stroke-width="2" stroke-linecap="round" fill="none"/>
        <circle cx="70" cy="0" r="2"/>
      </g>
      <text x="0" y="80" class="tg-black">SILVER 925</text>
    </g>

    <!-- Dir C: Monogram -->
    <g transform="translate(680, 150)">
      <text x="0" y="-85" class="label-dark" style="font-size: 12px; text-anchor: middle; fill: #71717A;">DIR C — MONOGRAM EMBLEM</text>
      <g transform="scale(0.32)">
        
    <!-- Bold Octagonal Shamsa Star Frame -->
    <g stroke="#000000" stroke-width="16" fill="none" stroke-linejoin="round">
      <polygon points="0,-190 134,-134 190,0 134,134 0,190 -134,134 -190,0 -134,-134"/>
      <polygon points="0,-145 102,-102 145,0 102,102 0,145 -102,102 -145,0 -102,-102" stroke-width="8" opacity="0.7"/>
    </g>
    
    <!-- Bold Classic French Serif + Persian Calligraphy Sweep 'R' Monogram -->
    <g fill="#000000">
      <!-- Vertical Stem -->
      <path d="M -64,-96 L -36,-96 L -36,78 L -64,78 L -64,96 L -6,96 L -6,78 L -20,78 L -20,-78 L -6,-78 L -6,-96 L -64,-96 Z"/>
      
      <!-- Upper Bowl -->
      <path d="M -20,-96 C 30,-96 76,-94 76,-38 C 76,8 36,24 -12,26 L -20,26 L -20,-96 Z M -4,-74 L -4,4 C 34,4 52,-2 52,-36 C 52,-70 28,-74 -4,-74 Z"/>
      
      <!-- Persian Sweeping Tail -->
      <path d="M 0,14 C 18,14 40,42 64,74 C 74,88 84,96 106,96 L 106,78 C 92,78 82,70 70,52 C 46,22 30,-2 4,-2 L -20,-2 L -20,16 L 0,14 Z"/>
      
      <!-- Diamond Accent Dot -->
      <polygon points="18,-36 26,-28 18,-20 10,-28"/>
    </g>
    
      </g>
    </g>

    <!-- Dir D: Horizontal Store Header -->
    <g transform="translate(700, 370)">
      <text x="-30" y="-60" class="label-dark" style="font-size: 12px; text-anchor: middle; fill: #71717A;">DIR D — HORIZONTAL HEADER</text>
      <g transform="translate(-150, 0)">
        <g transform="translate(0, 0) scale(0.24)">
          
    <!-- Bold Octagonal Shamsa Star Frame -->
    <g stroke="#000000" stroke-width="16" fill="none" stroke-linejoin="round">
      <polygon points="0,-190 134,-134 190,0 134,134 0,190 -134,134 -190,0 -134,-134"/>
      <polygon points="0,-145 102,-102 145,0 102,102 0,145 -102,102 -145,0 -102,-102" stroke-width="8" opacity="0.7"/>
    </g>
    
    <!-- Bold Classic French Serif + Persian Calligraphy Sweep 'R' Monogram -->
    <g fill="#000000">
      <!-- Vertical Stem -->
      <path d="M -64,-96 L -36,-96 L -36,78 L -64,78 L -64,96 L -6,96 L -6,78 L -20,78 L -20,-78 L -6,-78 L -6,-96 L -64,-96 Z"/>
      
      <!-- Upper Bowl -->
      <path d="M -20,-96 C 30,-96 76,-94 76,-38 C 76,8 36,24 -12,26 L -20,26 L -20,-96 Z M -4,-74 L -4,4 C 34,4 52,-2 52,-36 C 52,-70 28,-74 -4,-74 Z"/>
      
      <!-- Persian Sweeping Tail -->
      <path d="M 0,14 C 18,14 40,42 64,74 C 74,88 84,96 106,96 L 106,78 C 92,78 82,70 70,52 C 46,22 30,-2 4,-2 L -20,-2 L -20,16 L 0,14 Z"/>
      
      <!-- Diamond Accent Dot -->
      <polygon points="18,-36 26,-28 18,-20 10,-28"/>
    </g>
    
        </g>
        <line x1="75" y1="-35" x2="75" y2="35" stroke="#000000" stroke-width="2" opacity="0.3"/>
        <text x="105" y="5" class="wm-black" style="font-size: 34px; text-anchor: start;">RADMAN</text>
        <text x="107" y="32" class="tg-black" style="font-size: 10px; text-anchor: start;">SILVER 925</text>
      </g>
    </g>
  </g>

  <!-- ========================================== -->
  <!-- SECTION 2: BLACK BACKGROUND SIDE-BY-SIDE -->
  <!-- ========================================== -->
  <g transform="translate(1230, 190)">
    <text x="20" y="0" class="section-label">2. BLACK BACKGROUND PERFORMANCE (ALL 4 DIRECTIONS)</text>
    <g transform="translate(0, 25)" filter="url(#shadow)">
      <rect width="1070" height="520" rx="12" fill="#0A0A0E"/>
      <rect x="20" y="20" width="1030" height="480" rx="8" fill="none" stroke="#27272A" stroke-width="2"/>
    </g>

    <!-- Inside Black Card -->
    <!-- Dir A: Pure Wordmark -->
    <g transform="translate(260, 95)">
      <text x="0" y="-30" class="section-label" style="font-size: 12px; text-anchor: middle; fill: #A1A1AA;">DIR A — PURE WORDMARK</text>
      <text x="0" y="10" class="wm-white">RADMAN</text>
      <text x="0" y="45" class="tg-white">SILVER 925</text>
    </g>

    <!-- Dir B: Wordmark + Ornament -->
    <g transform="translate(260, 330)">
      <text x="0" y="-45" class="section-label" style="font-size: 12px; text-anchor: middle; fill: #A1A1AA;">DIR B — WORDMARK + MINIMAL ORNAMENT</text>
      <text x="0" y="0" class="wm-white">RADMAN</text>
      <g transform="translate(0, 38)" fill="#FFFFFF" stroke="#FFFFFF">
        <path d="M -70,0 L -25,0" stroke-width="2" stroke-linecap="round" fill="none"/>
        <circle cx="-70" cy="0" r="2"/>
        <polygon points="0,-10 3,-3 10,0 3,3 0,10 -3,3 -10,0 -3,-3" stroke-width="1"/>
        <polygon points="0,-7 5,-5 7,0 5,5 0,7 -5,5 -7,0 -5,-5" fill="none" stroke-width="1.5"/>
        <path d="M 25,0 L 70,0" stroke-width="2" stroke-linecap="round" fill="none"/>
        <circle cx="70" cy="0" r="2"/>
      </g>
      <text x="0" y="80" class="tg-white">SILVER 925</text>
    </g>

    <!-- Dir C: Monogram -->
    <g transform="translate(680, 150)">
      <text x="0" y="-85" class="section-label" style="font-size: 12px; text-anchor: middle; fill: #A1A1AA;">DIR C — MONOGRAM EMBLEM</text>
      <g transform="scale(0.32)">
        
    <!-- Bold Octagonal Shamsa Star Frame -->
    <g stroke="#FFFFFF" stroke-width="16" fill="none" stroke-linejoin="round">
      <polygon points="0,-190 134,-134 190,0 134,134 0,190 -134,134 -190,0 -134,-134"/>
      <polygon points="0,-145 102,-102 145,0 102,102 0,145 -102,102 -145,0 -102,-102" stroke-width="8" opacity="0.7"/>
    </g>
    
    <!-- Bold Classic French Serif + Persian Calligraphy Sweep 'R' Monogram -->
    <g fill="#FFFFFF">
      <!-- Vertical Stem -->
      <path d="M -64,-96 L -36,-96 L -36,78 L -64,78 L -64,96 L -6,96 L -6,78 L -20,78 L -20,-78 L -6,-78 L -6,-96 L -64,-96 Z"/>
      
      <!-- Upper Bowl -->
      <path d="M -20,-96 C 30,-96 76,-94 76,-38 C 76,8 36,24 -12,26 L -20,26 L -20,-96 Z M -4,-74 L -4,4 C 34,4 52,-2 52,-36 C 52,-70 28,-74 -4,-74 Z"/>
      
      <!-- Persian Sweeping Tail -->
      <path d="M 0,14 C 18,14 40,42 64,74 C 74,88 84,96 106,96 L 106,78 C 92,78 82,70 70,52 C 46,22 30,-2 4,-2 L -20,-2 L -20,16 L 0,14 Z"/>
      
      <!-- Diamond Accent Dot -->
      <polygon points="18,-36 26,-28 18,-20 10,-28"/>
    </g>
    
      </g>
    </g>

    <!-- Dir D: Horizontal Store Header -->
    <g transform="translate(700, 370)">
      <text x="-30" y="-60" class="section-label" style="font-size: 12px; text-anchor: middle; fill: #A1A1AA;">DIR D — HORIZONTAL HEADER</text>
      <g transform="translate(-150, 0)">
        <g transform="translate(0, 0) scale(0.24)">
          
    <!-- Bold Octagonal Shamsa Star Frame -->
    <g stroke="#FFFFFF" stroke-width="16" fill="none" stroke-linejoin="round">
      <polygon points="0,-190 134,-134 190,0 134,134 0,190 -134,134 -190,0 -134,-134"/>
      <polygon points="0,-145 102,-102 145,0 102,102 0,145 -102,102 -145,0 -102,-102" stroke-width="8" opacity="0.7"/>
    </g>
    
    <!-- Bold Classic French Serif + Persian Calligraphy Sweep 'R' Monogram -->
    <g fill="#FFFFFF">
      <!-- Vertical Stem -->
      <path d="M -64,-96 L -36,-96 L -36,78 L -64,78 L -64,96 L -6,96 L -6,78 L -20,78 L -20,-78 L -6,-78 L -6,-96 L -64,-96 Z"/>
      
      <!-- Upper Bowl -->
      <path d="M -20,-96 C 30,-96 76,-94 76,-38 C 76,8 36,24 -12,26 L -20,26 L -20,-96 Z M -4,-74 L -4,4 C 34,4 52,-2 52,-36 C 52,-70 28,-74 -4,-74 Z"/>
      
      <!-- Persian Sweeping Tail -->
      <path d="M 0,14 C 18,14 40,42 64,74 C 74,88 84,96 106,96 L 106,78 C 92,78 82,70 70,52 C 46,22 30,-2 4,-2 L -20,-2 L -20,16 L 0,14 Z"/>
      
      <!-- Diamond Accent Dot -->
      <polygon points="18,-36 26,-28 18,-20 10,-28"/>
    </g>
    
        </g>
        <line x1="75" y1="-35" x2="75" y2="35" stroke="#FFFFFF" stroke-width="2" opacity="0.3"/>
        <text x="105" y="5" class="wm-white" style="font-size: 34px; text-anchor: start;">RADMAN</text>
        <text x="107" y="32" class="tg-white" style="font-size: 10px; text-anchor: start;">SILVER 925</text>
      </g>
    </g>
  </g>

  <!-- ========================================== -->
  <!-- SECTION 3: WEBSITE HEADER MOCKUP -->
  <!-- ========================================== -->
  <g transform="translate(100, 770)">
    <text x="20" y="0" class="section-label">3. WOOCOMMERCE / WEBSITE STORE HEADER MOCKUPS (DESKTOP &amp; MOBILE)</text>
    <g transform="translate(0, 25)" filter="url(#shadow)">
      <rect width="1070" height="340" rx="12" fill="#0C0C0E"/>
      <rect x="20" y="20" width="1030" height="300" rx="8" fill="none" stroke="#27272A" stroke-width="1.5"/>
    </g>

    <!-- Desktop Navigation Header Simulation -->
    <g transform="translate(45, 60)">
      <rect width="980" height="90" rx="6" fill="#141418" stroke="#27272A" stroke-width="1"/>
      <!-- Header Logo (Dir D) -->
      <g transform="translate(40, 45)">
        <g transform="translate(0, 0) scale(0.22)">
          
    <!-- Bold Octagonal Shamsa Star Frame -->
    <g stroke="#FFFFFF" stroke-width="16" fill="none" stroke-linejoin="round">
      <polygon points="0,-190 134,-134 190,0 134,134 0,190 -134,134 -190,0 -134,-134"/>
      <polygon points="0,-145 102,-102 145,0 102,102 0,145 -102,102 -145,0 -102,-102" stroke-width="8" opacity="0.7"/>
    </g>
    
    <!-- Bold Classic French Serif + Persian Calligraphy Sweep 'R' Monogram -->
    <g fill="#FFFFFF">
      <!-- Vertical Stem -->
      <path d="M -64,-96 L -36,-96 L -36,78 L -64,78 L -64,96 L -6,96 L -6,78 L -20,78 L -20,-78 L -6,-78 L -6,-96 L -64,-96 Z"/>
      
      <!-- Upper Bowl -->
      <path d="M -20,-96 C 30,-96 76,-94 76,-38 C 76,8 36,24 -12,26 L -20,26 L -20,-96 Z M -4,-74 L -4,4 C 34,4 52,-2 52,-36 C 52,-70 28,-74 -4,-74 Z"/>
      
      <!-- Persian Sweeping Tail -->
      <path d="M 0,14 C 18,14 40,42 64,74 C 74,88 84,96 106,96 L 106,78 C 92,78 82,70 70,52 C 46,22 30,-2 4,-2 L -20,-2 L -20,16 L 0,14 Z"/>
      
      <!-- Diamond Accent Dot -->
      <polygon points="18,-36 26,-28 18,-20 10,-28"/>
    </g>
    
        </g>
        <line x1="65" y1="-25" x2="65" y2="25" stroke="#FFFFFF" stroke-width="1.5" opacity="0.4"/>
        <text x="90" y="4" class="wm-white" style="font-size: 28px; text-anchor: start;">RADMAN</text>
        <text x="92" y="24" class="tg-white" style="font-size: 9px; text-anchor: start;">SILVER 925</text>
      </g>
      <!-- Menu Links -->
      <text x="880" y="52" class="section-label" style="font-size: 13px; text-anchor: end; letter-spacing: 0.25em;">COLLECTIONS     RINGS     NECKLACES     ABOUT     BAG (2)</text>
    </g>

    <!-- Mobile Header Simulation -->
    <g transform="translate(45, 175)">
      <text x="0" y="0" class="subtitle" style="font-size: 11px; text-anchor: start; fill: #71717A;">MOBILE RESPONSIVE HEADER STRIP (375px SIMULATION)</text>
      <rect y="20" width="480" height="85" rx="6" fill="#141418" stroke="#27272A" stroke-width="1"/>
      <!-- Burger Icon -->
      <path d="M 30,55 L 60,55 M 30,65 L 60,65 M 30,75 L 60,75" stroke="#FFFFFF" stroke-width="2" stroke-linecap="round"/>
      <!-- Centered Mobile Header Logo (Dir D compact) -->
      <g transform="translate(145, 62)">
        <g transform="translate(0, 0) scale(0.2)">
          
    <!-- Bold Octagonal Shamsa Star Frame -->
    <g stroke="#FFFFFF" stroke-width="16" fill="none" stroke-linejoin="round">
      <polygon points="0,-190 134,-134 190,0 134,134 0,190 -134,134 -190,0 -134,-134"/>
      <polygon points="0,-145 102,-102 145,0 102,102 0,145 -102,102 -145,0 -102,-102" stroke-width="8" opacity="0.7"/>
    </g>
    
    <!-- Bold Classic French Serif + Persian Calligraphy Sweep 'R' Monogram -->
    <g fill="#FFFFFF">
      <!-- Vertical Stem -->
      <path d="M -64,-96 L -36,-96 L -36,78 L -64,78 L -64,96 L -6,96 L -6,78 L -20,78 L -20,-78 L -6,-78 L -6,-96 L -64,-96 Z"/>
      
      <!-- Upper Bowl -->
      <path d="M -20,-96 C 30,-96 76,-94 76,-38 C 76,8 36,24 -12,26 L -20,26 L -20,-96 Z M -4,-74 L -4,4 C 34,4 52,-2 52,-36 C 52,-70 28,-74 -4,-74 Z"/>
      
      <!-- Persian Sweeping Tail -->
      <path d="M 0,14 C 18,14 40,42 64,74 C 74,88 84,96 106,96 L 106,78 C 92,78 82,70 70,52 C 46,22 30,-2 4,-2 L -20,-2 L -20,16 L 0,14 Z"/>
      
      <!-- Diamond Accent Dot -->
      <polygon points="18,-36 26,-28 18,-20 10,-28"/>
    </g>
    
        </g>
        <text x="65" y="4" class="wm-white" style="font-size: 26px; text-anchor: start;">RADMAN</text>
        <text x="67" y="23" class="tg-white" style="font-size: 8px; text-anchor: start;">SILVER 925</text>
      </g>
      <!-- Cart Icon -->
      <circle cx="435" cy="62" r="16" fill="none" stroke="#FFFFFF" stroke-width="1.5"/>
      <text x="435" y="66" class="tg-white" style="font-size: 10px;">2</text>
    </g>
  </g>

  <!-- ========================================== -->
  <!-- SECTION 4: INSTAGRAM & FAVICON PREVIEWS -->
  <!-- ========================================== -->
  <g transform="translate(1230, 770)">
    <text x="20" y="0" class="section-label">4. INSTAGRAM PROFILE, AVATAR &amp; FAVICON (DIR C MONOGRAM)</text>
    <g transform="translate(0, 25)" filter="url(#shadow)">
      <rect width="1070" height="340" rx="12" fill="#0C0C0E"/>
      <rect x="20" y="20" width="1030" height="300" rx="8" fill="none" stroke="#27272A" stroke-width="1.5"/>
    </g>

    <!-- Instagram Profile Card Simulation -->
    <g transform="translate(60, 70)">
      <rect width="480" height="200" rx="10" fill="#141418" stroke="#27272A" stroke-width="1"/>
      <!-- Circular Avatar (Dir C Monogram) -->
      <circle cx="100" cy="100" r="60" fill="#09090B" stroke="#3F3F46" stroke-width="2"/>
      <g transform="translate(100, 100) scale(0.22)">
        
    <!-- Bold Octagonal Shamsa Star Frame -->
    <g stroke="#FFFFFF" stroke-width="16" fill="none" stroke-linejoin="round">
      <polygon points="0,-190 134,-134 190,0 134,134 0,190 -134,134 -190,0 -134,-134"/>
      <polygon points="0,-145 102,-102 145,0 102,102 0,145 -102,102 -145,0 -102,-102" stroke-width="8" opacity="0.7"/>
    </g>
    
    <!-- Bold Classic French Serif + Persian Calligraphy Sweep 'R' Monogram -->
    <g fill="#FFFFFF">
      <!-- Vertical Stem -->
      <path d="M -64,-96 L -36,-96 L -36,78 L -64,78 L -64,96 L -6,96 L -6,78 L -20,78 L -20,-78 L -6,-78 L -6,-96 L -64,-96 Z"/>
      
      <!-- Upper Bowl -->
      <path d="M -20,-96 C 30,-96 76,-94 76,-38 C 76,8 36,24 -12,26 L -20,26 L -20,-96 Z M -4,-74 L -4,4 C 34,4 52,-2 52,-36 C 52,-70 28,-74 -4,-74 Z"/>
      
      <!-- Persian Sweeping Tail -->
      <path d="M 0,14 C 18,14 40,42 64,74 C 74,88 84,96 106,96 L 106,78 C 92,78 82,70 70,52 C 46,22 30,-2 4,-2 L -20,-2 L -20,16 L 0,14 Z"/>
      
      <!-- Diamond Accent Dot -->
      <polygon points="18,-36 26,-28 18,-20 10,-28"/>
    </g>
    
      </g>
      <!-- Bio Text -->
      <text x="185" y="75" class="section-label" style="font-size: 18px; text-anchor: start;">@radmansilver.ir</text>
      <text x="185" y="105" class="subtitle" style="font-size: 12px; text-anchor: start; fill: #E2E8F0;">RADMAN SILVER 925 • Haute Joaillerie</text>
      <text x="185" y="130" class="subtitle" style="font-size: 11px; text-anchor: start; fill: #A1A1AA;">French Serif • Persian Shamsa Royal Heritage</text>
      <text x="185" y="150" class="subtitle" style="font-size: 11px; text-anchor: start; fill: #60A5FA;">radmansilver.ir</text>
    </g>

    <!-- Favicon Browser Tab Simulation -->
    <g transform="translate(580, 70)">
      <rect width="420" height="200" rx="10" fill="#141418" stroke="#27272A" stroke-width="1"/>
      <text x="30" y="35" class="subtitle" style="font-size: 11px; text-anchor: start; fill: #71717A;">BROWSER TAB FAVICON RENDERING (32px / 16px)</text>
      
      <!-- Tab 1: 32px -->
      <g transform="translate(30, 60)">
        <rect width="360" height="48" rx="8" fill="#24242A"/>
        <g transform="translate(30, 24) scale(0.08)">
          
    <!-- Bold Octagonal Shamsa Star Frame -->
    <g stroke="#FFFFFF" stroke-width="16" fill="none" stroke-linejoin="round">
      <polygon points="0,-190 134,-134 190,0 134,134 0,190 -134,134 -190,0 -134,-134"/>
      <polygon points="0,-145 102,-102 145,0 102,102 0,145 -102,102 -145,0 -102,-102" stroke-width="8" opacity="0.7"/>
    </g>
    
    <!-- Bold Classic French Serif + Persian Calligraphy Sweep 'R' Monogram -->
    <g fill="#FFFFFF">
      <!-- Vertical Stem -->
      <path d="M -64,-96 L -36,-96 L -36,78 L -64,78 L -64,96 L -6,96 L -6,78 L -20,78 L -20,-78 L -6,-78 L -6,-96 L -64,-96 Z"/>
      
      <!-- Upper Bowl -->
      <path d="M -20,-96 C 30,-96 76,-94 76,-38 C 76,8 36,24 -12,26 L -20,26 L -20,-96 Z M -4,-74 L -4,4 C 34,4 52,-2 52,-36 C 52,-70 28,-74 -4,-74 Z"/>
      
      <!-- Persian Sweeping Tail -->
      <path d="M 0,14 C 18,14 40,42 64,74 C 74,88 84,96 106,96 L 106,78 C 92,78 82,70 70,52 C 46,22 30,-2 4,-2 L -20,-2 L -20,16 L 0,14 Z"/>
      
      <!-- Diamond Accent Dot -->
      <polygon points="18,-36 26,-28 18,-20 10,-28"/>
    </g>
    
        </g>
        <text x="65" y="30" class="subtitle" style="font-size: 14px; text-anchor: start; fill: #FFFFFF;">RADMAN SILVER 925 — Fine Jewelry</text>
      </g>
      
      <!-- Tab 2: 16px -->
      <g transform="translate(30, 125)">
        <rect width="360" height="48" rx="8" fill="#1A1A1F"/>
        <g transform="translate(30, 24) scale(0.045)">
          
    <!-- Bold Octagonal Shamsa Star Frame -->
    <g stroke="#FFFFFF" stroke-width="16" fill="none" stroke-linejoin="round">
      <polygon points="0,-190 134,-134 190,0 134,134 0,190 -134,134 -190,0 -134,-134"/>
      <polygon points="0,-145 102,-102 145,0 102,102 0,145 -102,102 -145,0 -102,-102" stroke-width="8" opacity="0.7"/>
    </g>
    
    <!-- Bold Classic French Serif + Persian Calligraphy Sweep 'R' Monogram -->
    <g fill="#FFFFFF">
      <!-- Vertical Stem -->
      <path d="M -64,-96 L -36,-96 L -36,78 L -64,78 L -64,96 L -6,96 L -6,78 L -20,78 L -20,-78 L -6,-78 L -6,-96 L -64,-96 Z"/>
      
      <!-- Upper Bowl -->
      <path d="M -20,-96 C 30,-96 76,-94 76,-38 C 76,8 36,24 -12,26 L -20,26 L -20,-96 Z M -4,-74 L -4,4 C 34,4 52,-2 52,-36 C 52,-70 28,-74 -4,-74 Z"/>
      
      <!-- Persian Sweeping Tail -->
      <path d="M 0,14 C 18,14 40,42 64,74 C 74,88 84,96 106,96 L 106,78 C 92,78 82,70 70,52 C 46,22 30,-2 4,-2 L -20,-2 L -20,16 L 0,14 Z"/>
      
      <!-- Diamond Accent Dot -->
      <polygon points="18,-36 26,-28 18,-20 10,-28"/>
    </g>
    
        </g>
        <text x="65" y="30" class="subtitle" style="font-size: 14px; text-anchor: start; fill: #A1A1AA;">Collections — Radman Silver Store</text>
      </g>
    </g>
  </g>

  <!-- ========================================== -->
  <!-- SECTION 5: JEWELRY BOX & PACKAGING MOCKUP -->
  <!-- ========================================== -->
  <g transform="translate(100, 1160)">
    <text x="20" y="0" class="section-label">5. JEWELRY BOX, GIFT CARD &amp; PACKAGING APPLICATION (DIR B ORNAMENT)</text>
    <g transform="translate(0, 25)" filter="url(#shadow)">
      <rect width="2200" height="360" rx="12" fill="#0C0C0E"/>
      <rect x="20" y="20" width="2160" height="320" rx="8" fill="none" stroke="#27272A" stroke-width="1.5"/>
    </g>

    <!-- Jewelry Box Representation -->
    <g transform="translate(350, 185)">
      <rect x="-240" y="-120" width="480" height="240" rx="16" fill="#121216" stroke="#3F3F46" stroke-width="2"/>
      <rect x="-230" y="-110" width="460" height="220" rx="12" fill="none" stroke="#27272A" stroke-width="1"/>
      <text x="0" y="-20" class="wm-white" style="font-size: 52px;">RADMAN</text>
      <!-- Minimal Ornament -->
      <g transform="translate(0, 25)" fill="#FFFFFF" stroke="#FFFFFF">
        <path d="M -80,0 L -30,0" stroke-width="2" stroke-linecap="round" fill="none"/>
        <circle cx="-80" cy="0" r="2.5"/>
        <polygon points="0,-12 4,-4 12,0 4,4 0,12 -4,4 -12,0 -4,-4" stroke-width="1.5"/>
        <polygon points="0,-8 6,-6 8,0 6,6 0,8 -6,6 -8,0 -6,-6" fill="none" stroke-width="1.5"/>
        <path d="M 30,0 L 80,0" stroke-width="2" stroke-linecap="round" fill="none"/>
        <circle cx="80" cy="0" r="2.5"/>
      </g>
      <text x="0" y="70" class="tg-white" style="font-size: 14px;">SILVER 925</text>
      <text x="0" y="145" class="subtitle" style="font-size: 11px; fill: #A1A1AA;">LUXURY EMBOSSED GIFT BOX LID (MATTE BLACK &amp; STERLING FOIL)</text>
    </g>

    <!-- Gift Bag / Certificate Card Representation -->
    <g transform="translate(1300, 185)">
      <rect x="-300" y="-120" width="600" height="240" rx="10" fill="#FAFAFA" stroke="#E4E4E7" stroke-width="2"/>
      <rect x="-288" y="-108" width="576" height="216" rx="6" fill="none" stroke="#F4F4F5" stroke-width="1"/>
      <text x="0" y="-20" class="wm-black" style="font-size: 52px;">RADMAN</text>
      <g transform="translate(0, 25)" fill="#000000" stroke="#000000">
        <path d="M -80,0 L -30,0" stroke-width="2" stroke-linecap="round" fill="none"/>
        <circle cx="-80" cy="0" r="2.5"/>
        <polygon points="0,-12 4,-4 12,0 4,4 0,12 -4,4 -12,0 -4,-4" stroke-width="1.5"/>
        <polygon points="0,-8 6,-6 8,0 6,6 0,8 -6,6 -8,0 -6,-6" fill="none" stroke-width="1.5"/>
        <path d="M 30,0 L 80,0" stroke-width="2" stroke-linecap="round" fill="none"/>
        <circle cx="80" cy="0" r="2.5"/>
      </g>
      <text x="0" y="70" class="tg-black" style="font-size: 14px;">SILVER 925</text>
      <text x="0" y="145" class="subtitle" style="font-size: 11px; fill: #71717A;">AUTHENTICITY CERTIFICATE &amp; GIFT CARD (COTTON PAPER &amp; LETTERPRESS)</text>
    </g>
  </g>

</svg>