<?xml version="1.0" encoding="UTF-8"?>
<svg xmlns="http://www.w3.org/2000/svg" viewBox="0 0 3600 2600" width="100%" height="100%">
  <defs>
    <linearGradient id="review-bg" x1="0%" y1="0%" x2="100%" y2="100%">
      <stop offset="0%" stop-color="#121217"/>
      <stop offset="100%" stop-color="#09090C"/>
    </linearGradient>
    <filter id="shadow" x="-10%" y="-10%" width="120%" height="120%">
      <feDropShadow dx="0" dy="15" stdDeviation="15" flood-color="#000000" flood-opacity="0.8"/>
    </filter>
  </defs>

  <rect width="3600" height="2600" fill="url(#review-bg)"/>

  <!-- Top Header -->
  <line x1="120" y1="50" x2="3480" y2="50" stroke="#503A70" stroke-width="3" opacity="0.8"/>
  <text x="1800" y="105" font-family="Montserrat, sans-serif" font-size="38px" font-weight="700" fill="#D9DCE3" letter-spacing="8" text-anchor="middle">RIDELIN — CRYSTAL-CLEAR ENGLISH CAPITAL 'R' MONOGRAM COMPARISON</text>
  <text x="1800" y="145" font-family="Montserrat, sans-serif" font-size="16px" font-weight="600" fill="#8664B0" letter-spacing="6" text-anchor="middle">100% PRISTINE ENGLISH LETTER R (ZERO PERSIAN 'RE' RESEMBLANCE) • SPACIOUS CENTERED LAYOUT</text>
  <line x1="120" y1="180" x2="3480" y2="180" stroke="#503A70" stroke-width="3" opacity="0.8"/>

  <!-- ========================================== -->
  <!-- ROW 1: THE 3 NEW ENGLISH 'R' MONOGRAMS ON MATTE BLACK -->
  <!-- ========================================== -->
  <g transform="translate(100, 240)">
    <!-- Card 1: x=0, width=1050 -->
    <g transform="translate(0, 0)">
      <text x="525" y="-18" font-family="Montserrat, sans-serif" font-size="18px" font-weight="700" fill="#8664B0" letter-spacing="3" text-anchor="middle">1. OPTION 1 — CLASSIC ENGLISH 'R' IN CHIC RING</text>
      <g filter="url(#shadow)">
        <rect width="1050" height="460" rx="18" fill="#0D0D10" stroke="#503A70" stroke-width="2.5"/>
      </g>
      <g transform="translate(525, 230) scale(0.76)">
        
    <!-- CRYSTAL CLEAR ENGLISH CAPITAL 'R' IN CHIC RING -->
    <g transform="translate(256, 256) scale(1.0)">
      <!-- Outer Chic Ring Frame -->
      <circle cx="0" cy="0" r="160" fill="none" stroke="#D9DCE3" stroke-width="6" opacity="0.9"/>
      <circle cx="0" cy="0" r="142" fill="none" stroke="#503A70" stroke-width="3" stroke-dasharray="16 10" opacity="0.85"/>
      <circle cx="0" cy="-160" r="7" fill="#8664B0"/>
      
      <!-- Pristine, Unmistakable English Capital 'R' -->
      <!-- Vertical stem (-60 to 70), round bowl, classic sturdy diagonal leg -->
      <g stroke-linecap="round" stroke-linejoin="round">
        <!-- Vertical Stem -->
        <line x1="-55" y1="-95" x2="-55" y2="95" stroke="#D9DCE3" stroke-width="26"/>
        <!-- Upper Bowl (Classic English R loop) -->
        <path d="M -55,-95 L 20,-95 C 65,-95 85,-65 85,-30 C 85,5 65,30 20,30 L -55,30" fill="none" stroke="#D9DCE3" stroke-width="26"/>
        <!-- Classic Sturdy Diagonal Leg (50 deg English R leg, NO trailing Persian crescent) -->
        <line x1="5" y1="25" x2="70" y2="95" stroke="#D9DCE3" stroke-width="26"/>
        <!-- Royal Purple Accent inside bowl -->
        <circle cx="-10" cy="-32" r="10" fill="#503A70"/>
      </g>
    </g>
    
      </g>
      <text x="525" y="415" font-family="Montserrat, sans-serif" font-size="15px" font-weight="700" fill="#D9DCE3" text-anchor="middle">PURE ENGLISH R • SYMMETRICAL &amp; REGAL</text>
    </g>

    <!-- Card 2: x=1180, width=1050 -->
    <g transform="translate(1180, 0)">
      <text x="525" y="-18" font-family="Montserrat, sans-serif" font-size="18px" font-weight="700" fill="#8664B0" letter-spacing="3" text-anchor="middle">2. OPTION 2 — MOTORSPORT ENGLISH 'R' SHIELD</text>
      <g filter="url(#shadow)">
        <rect width="1050" height="460" rx="18" fill="#0D0D10" stroke="#503A70" stroke-width="2.5"/>
      </g>
      <g transform="translate(525, 230) scale(0.76)">
        
    <g transform="translate(256, 256) scale(1.0)">
      <!-- Hexagonal Shield Badge -->
      <g stroke="#D9DCE3" stroke-width="6" fill="none" stroke-linejoin="round">
        <polygon points="0,-175 130,-125 175,0 130,125 0,175 -130,125 -175,0 -130,-125"/>
        <polygon points="0,-152 112,-108 152,0 112,108 0,152 -112,108 -152,0 -112,-108" stroke="#503A70" stroke-width="3" opacity="0.8"/>
      </g>
      <circle cx="0" cy="-175" r="7" fill="#8664B0"/>
      <circle cx="0" cy="175" r="7" fill="#8664B0"/>

      <!-- Pristine English Capital 'R' -->
      <g stroke-linecap="round" stroke-linejoin="round">
        <line x1="-50" y1="-90" x2="-50" y2="90" stroke="#D9DCE3" stroke-width="28"/>
        <path d="M -50,-90 L 18,-90 C 65,-90 85,-60 85,-25 C 85,10 65,35 18,35 L -50,35" fill="none" stroke="#D9DCE3" stroke-width="28"/>
        <line x1="5" y1="30" x2="68" y2="90" stroke="#D9DCE3" stroke-width="28"/>
        <!-- Purple speed slash inside shield -->
        <line x1="-80" y1="115" x2="80" y2="115" stroke="#503A70" stroke-width="8" stroke-linecap="round"/>
      </g>
    </g>
    
      </g>
      <text x="525" y="415" font-family="Montserrat, sans-serif" font-size="15px" font-weight="700" fill="#D9DCE3" text-anchor="middle">HEXAGONAL BADGE WITH ROYAL PURPLE ACCENT</text>
    </g>

    <!-- Card 3: x=2360, width=1050 -->
    <g transform="translate(2360, 0)">
      <text x="525" y="-18" font-family="Montserrat, sans-serif" font-size="18px" font-weight="700" fill="#8664B0" letter-spacing="3" text-anchor="middle">3. OPTION 3 — ENGLISH 'R' + SPEED BLADE ('YE KHAT')</text>
      <g filter="url(#shadow)">
        <rect width="1050" height="460" rx="18" fill="#0D0D10" stroke="#503A70" stroke-width="2.5"/>
      </g>
      <g transform="translate(525, 230) scale(0.76)">
        
    <g transform="translate(256, 256) scale(1.0)">
      <!-- Clean Chic Circle -->
      <circle cx="0" cy="0" r="165" fill="none" stroke="#D9DCE3" stroke-width="5" opacity="0.7"/>
      <circle cx="0" cy="0" r="150" fill="none" stroke="#D9DCE3" stroke-width="1.5" stroke-dasharray="10 6" opacity="0.4"/>
      
      <!-- Pure English Capital 'R' positioned slightly above center -->
      <g transform="translate(0, -25)" stroke-linecap="round" stroke-linejoin="round">
        <line x1="-55" y1="-75" x2="-55" y2="75" stroke="#D9DCE3" stroke-width="26"/>
        <path d="M -55,-75 L 18,-75 C 65,-75 85,-48 85,-15 C 85,18 65,40 18,40 L -55,40" fill="none" stroke="#D9DCE3" stroke-width="26"/>
        <line x1="5" y1="35" x2="68" y2="75" stroke="#D9DCE3" stroke-width="26"/>
      </g>
      
      <!-- Horizontal Horizon Blade Line ('Ye Khat') below R -->
      <g transform="translate(-115, 95)">
        <path d="M 0,0 L 200,0 L 215,-6 L 8,-6 Z" fill="#503A70"/>
        <path d="M 0,0 L 200,0 L 215,-2.5 L 8,-2.5 Z" fill="#8664B0"/>
        <polygon points="222,-6 242,-6 235,0 215,0" fill="#D9DCE3"/>
      </g>
    </g>
    
      </g>
      <text x="525" y="415" font-family="Montserrat, sans-serif" font-size="15px" font-weight="700" fill="#D9DCE3" text-anchor="middle">ECHOES THE APPROVED WORDMARK LINE</text>
    </g>
  </g>

  <!-- ========================================== -->
  <!-- ROW 2: INSTAGRAM PROFILE SIMULATIONS (@ridelin.ir) -->
  <!-- ========================================== -->
  <g transform="translate(100, 780)">
    
    <!-- Opt 1 Insta -->
    <g transform="translate(0, 0)">
      <text x="525" y="-18" font-family="Montserrat, sans-serif" font-size="16px" font-weight="700" fill="#D9DCE3" letter-spacing="3" text-anchor="middle">INSTAGRAM PROFILE PREVIEW — OPTION 1</text>
      <g filter="url(#shadow)">
        <rect width="1050" height="340" rx="16" fill="#14141A" stroke="#3F3F46" stroke-width="1.5"/>
      </g>
      <circle cx="180" cy="170" r="95" fill="#0D0D10" stroke="#503A70" stroke-width="3"/>
      <g transform="translate(180, 170) scale(0.52)">
        
    <!-- CRYSTAL CLEAR ENGLISH CAPITAL 'R' IN CHIC RING -->
    <g transform="translate(256, 256) scale(1.0)">
      <!-- Outer Chic Ring Frame -->
      <circle cx="0" cy="0" r="160" fill="none" stroke="#D9DCE3" stroke-width="6" opacity="0.9"/>
      <circle cx="0" cy="0" r="142" fill="none" stroke="#503A70" stroke-width="3" stroke-dasharray="16 10" opacity="0.85"/>
      <circle cx="0" cy="-160" r="7" fill="#8664B0"/>
      
      <!-- Pristine, Unmistakable English Capital 'R' -->
      <!-- Vertical stem (-60 to 70), round bowl, classic sturdy diagonal leg -->
      <g stroke-linecap="round" stroke-linejoin="round">
        <!-- Vertical Stem -->
        <line x1="-55" y1="-95" x2="-55" y2="95" stroke="#D9DCE3" stroke-width="26"/>
        <!-- Upper Bowl (Classic English R loop) -->
        <path d="M -55,-95 L 20,-95 C 65,-95 85,-65 85,-30 C 85,5 65,30 20,30 L -55,30" fill="none" stroke="#D9DCE3" stroke-width="26"/>
        <!-- Classic Sturdy Diagonal Leg (50 deg English R leg, NO trailing Persian crescent) -->
        <line x1="5" y1="25" x2="70" y2="95" stroke="#D9DCE3" stroke-width="26"/>
        <!-- Royal Purple Accent inside bowl -->
        <circle cx="-10" cy="-32" r="10" fill="#503A70"/>
      </g>
    </g>
    
      </g>
      <text x="320" y="115" font-family="Montserrat, sans-serif" font-size="32px" font-weight="700" fill="#FFFFFF">@ridelin.ir</text>
      <text x="320" y="160" font-family="Montserrat, sans-serif" font-size="18px" font-weight="600" fill="#D9DCE3">RIDELIN — Modern Chic Moto Gear</text>
      <text x="320" y="195" font-family="Montserrat, sans-serif" font-size="15px" fill="#A1A1AA">Women-First • Subtle Feminine Elegance</text>
      <text x="320" y="230" font-family="Montserrat, sans-serif" font-size="16px" font-weight="700" fill="#8664B0">ridelin.ir</text>
    </g>

    <!-- Opt 2 Insta -->
    <g transform="translate(1180, 0)">
      <text x="525" y="-18" font-family="Montserrat, sans-serif" font-size="16px" font-weight="700" fill="#D9DCE3" letter-spacing="3" text-anchor="middle">INSTAGRAM PROFILE PREVIEW — OPTION 2</text>
      <g filter="url(#shadow)">
        <rect width="1050" height="340" rx="16" fill="#14141A" stroke="#3F3F46" stroke-width="1.5"/>
      </g>
      <circle cx="180" cy="170" r="95" fill="#0D0D10" stroke="#503A70" stroke-width="3"/>
      <g transform="translate(180, 170) scale(0.52)">
        
    <g transform="translate(256, 256) scale(1.0)">
      <!-- Hexagonal Shield Badge -->
      <g stroke="#D9DCE3" stroke-width="6" fill="none" stroke-linejoin="round">
        <polygon points="0,-175 130,-125 175,0 130,125 0,175 -130,125 -175,0 -130,-125"/>
        <polygon points="0,-152 112,-108 152,0 112,108 0,152 -112,108 -152,0 -112,-108" stroke="#503A70" stroke-width="3" opacity="0.8"/>
      </g>
      <circle cx="0" cy="-175" r="7" fill="#8664B0"/>
      <circle cx="0" cy="175" r="7" fill="#8664B0"/>

      <!-- Pristine English Capital 'R' -->
      <g stroke-linecap="round" stroke-linejoin="round">
        <line x1="-50" y1="-90" x2="-50" y2="90" stroke="#D9DCE3" stroke-width="28"/>
        <path d="M -50,-90 L 18,-90 C 65,-90 85,-60 85,-25 C 85,10 65,35 18,35 L -50,35" fill="none" stroke="#D9DCE3" stroke-width="28"/>
        <line x1="5" y1="30" x2="68" y2="90" stroke="#D9DCE3" stroke-width="28"/>
        <!-- Purple speed slash inside shield -->
        <line x1="-80" y1="115" x2="80" y2="115" stroke="#503A70" stroke-width="8" stroke-linecap="round"/>
      </g>
    </g>
    
      </g>
      <text x="320" y="115" font-family="Montserrat, sans-serif" font-size="32px" font-weight="700" fill="#FFFFFF">@ridelin.ir</text>
      <text x="320" y="160" font-family="Montserrat, sans-serif" font-size="18px" font-weight="600" fill="#D9DCE3">RIDELIN — Modern Chic Moto Gear</text>
      <text x="320" y="195" font-family="Montserrat, sans-serif" font-size="15px" fill="#A1A1AA">Women-First • Subtle Feminine Elegance</text>
      <text x="320" y="230" font-family="Montserrat, sans-serif" font-size="16px" font-weight="700" fill="#8664B0">ridelin.ir</text>
    </g>

    <!-- Opt 3 Insta -->
    <g transform="translate(2360, 0)">
      <text x="525" y="-18" font-family="Montserrat, sans-serif" font-size="16px" font-weight="700" fill="#D9DCE3" letter-spacing="3" text-anchor="middle">INSTAGRAM PROFILE PREVIEW — OPTION 3</text>
      <g filter="url(#shadow)">
        <rect width="1050" height="340" rx="16" fill="#14141A" stroke="#3F3F46" stroke-width="1.5"/>
      </g>
      <circle cx="180" cy="170" r="95" fill="#0D0D10" stroke="#503A70" stroke-width="3"/>
      <g transform="translate(180, 170) scale(0.52)">
        
    <g transform="translate(256, 256) scale(1.0)">
      <!-- Clean Chic Circle -->
      <circle cx="0" cy="0" r="165" fill="none" stroke="#D9DCE3" stroke-width="5" opacity="0.7"/>
      <circle cx="0" cy="0" r="150" fill="none" stroke="#D9DCE3" stroke-width="1.5" stroke-dasharray="10 6" opacity="0.4"/>
      
      <!-- Pure English Capital 'R' positioned slightly above center -->
      <g transform="translate(0, -25)" stroke-linecap="round" stroke-linejoin="round">
        <line x1="-55" y1="-75" x2="-55" y2="75" stroke="#D9DCE3" stroke-width="26"/>
        <path d="M -55,-75 L 18,-75 C 65,-75 85,-48 85,-15 C 85,18 65,40 18,40 L -55,40" fill="none" stroke="#D9DCE3" stroke-width="26"/>
        <line x1="5" y1="35" x2="68" y2="75" stroke="#D9DCE3" stroke-width="26"/>
      </g>
      
      <!-- Horizontal Horizon Blade Line ('Ye Khat') below R -->
      <g transform="translate(-115, 95)">
        <path d="M 0,0 L 200,0 L 215,-6 L 8,-6 Z" fill="#503A70"/>
        <path d="M 0,0 L 200,0 L 215,-2.5 L 8,-2.5 Z" fill="#8664B0"/>
        <polygon points="222,-6 242,-6 235,0 215,0" fill="#D9DCE3"/>
      </g>
    </g>
    
      </g>
      <text x="320" y="115" font-family="Montserrat, sans-serif" font-size="32px" font-weight="700" fill="#FFFFFF">@ridelin.ir</text>
      <text x="320" y="160" font-family="Montserrat, sans-serif" font-size="18px" font-weight="600" fill="#D9DCE3">RIDELIN — Modern Chic Moto Gear</text>
      <text x="320" y="195" font-family="Montserrat, sans-serif" font-size="15px" fill="#A1A1AA">Women-First • Subtle Feminine Elegance</text>
      <text x="320" y="230" font-family="Montserrat, sans-serif" font-size="16px" font-weight="700" fill="#8664B0">ridelin.ir</text>
    </g>

  </g>

  <!-- ========================================== -->
  <!-- ROW 3: FAVICONS (32×32) & iOS HOME SCREEN (180×180) -->
  <!-- ========================================== -->
  <g transform="translate(100, 1220)">
    
    <!-- Opt 1 Ivory Favicon & Apple -->
    <g transform="translate(0, 0)">
      <text x="525" y="-18" font-family="Montserrat, sans-serif" font-size="16px" font-weight="700" fill="#D9DCE3" letter-spacing="3" text-anchor="middle">OPTION 1 — FAVICON 32 &amp; iOS 180PX (IVORY BACKGROUND)</text>
      <g filter="url(#shadow)">
        <rect width="1050" height="340" rx="16" fill="#FAF7F2" stroke="#D4D4D8" stroke-width="2"/>
      </g>
      <!-- 32px box -->
      <g transform="translate(300, 170)">
        <rect x="-70" y="-70" width="140" height="140" rx="24" fill="#0D0D10" stroke="#503A70" stroke-width="3"/>
        <text x="0" y="-95" font-family="Montserrat, sans-serif" font-size="14px" font-weight="700" fill="#0D0D10" text-anchor="middle">32×32 FAVICON</text>
        <g transform="scale(0.38)">
          
    <!-- CRYSTAL CLEAR ENGLISH CAPITAL 'R' IN CHIC RING -->
    <g transform="translate(256, 256) scale(1.0)">
      <!-- Outer Chic Ring Frame -->
      <circle cx="0" cy="0" r="160" fill="none" stroke="#D9DCE3" stroke-width="6" opacity="0.9"/>
      <circle cx="0" cy="0" r="142" fill="none" stroke="#503A70" stroke-width="3" stroke-dasharray="16 10" opacity="0.85"/>
      <circle cx="0" cy="-160" r="7" fill="#8664B0"/>
      
      <!-- Pristine, Unmistakable English Capital 'R' -->
      <!-- Vertical stem (-60 to 70), round bowl, classic sturdy diagonal leg -->
      <g stroke-linecap="round" stroke-linejoin="round">
        <!-- Vertical Stem -->
        <line x1="-55" y1="-95" x2="-55" y2="95" stroke="#D9DCE3" stroke-width="26"/>
        <!-- Upper Bowl (Classic English R loop) -->
        <path d="M -55,-95 L 20,-95 C 65,-95 85,-65 85,-30 C 85,5 65,30 20,30 L -55,30" fill="none" stroke="#D9DCE3" stroke-width="26"/>
        <!-- Classic Sturdy Diagonal Leg (50 deg English R leg, NO trailing Persian crescent) -->
        <line x1="5" y1="25" x2="70" y2="95" stroke="#D9DCE3" stroke-width="26"/>
        <!-- Royal Purple Accent inside bowl -->
        <circle cx="-10" cy="-32" r="10" fill="#503A70"/>
      </g>
    </g>
    
        </g>
      </g>
      <!-- 180px box -->
      <g transform="translate(750, 170)">
        <rect x="-105" y="-105" width="210" height="210" rx="46" fill="#0D0D10" stroke="#503A70" stroke-width="3"/>
        <text x="0" y="-130" font-family="Montserrat, sans-serif" font-size="14px" font-weight="700" fill="#0D0D10" text-anchor="middle">180PX APPLE iOS</text>
        <g transform="scale(0.58)">
          
    <!-- CRYSTAL CLEAR ENGLISH CAPITAL 'R' IN CHIC RING -->
    <g transform="translate(256, 256) scale(1.0)">
      <!-- Outer Chic Ring Frame -->
      <circle cx="0" cy="0" r="160" fill="none" stroke="#D9DCE3" stroke-width="6" opacity="0.9"/>
      <circle cx="0" cy="0" r="142" fill="none" stroke="#503A70" stroke-width="3" stroke-dasharray="16 10" opacity="0.85"/>
      <circle cx="0" cy="-160" r="7" fill="#8664B0"/>
      
      <!-- Pristine, Unmistakable English Capital 'R' -->
      <!-- Vertical stem (-60 to 70), round bowl, classic sturdy diagonal leg -->
      <g stroke-linecap="round" stroke-linejoin="round">
        <!-- Vertical Stem -->
        <line x1="-55" y1="-95" x2="-55" y2="95" stroke="#D9DCE3" stroke-width="26"/>
        <!-- Upper Bowl (Classic English R loop) -->
        <path d="M -55,-95 L 20,-95 C 65,-95 85,-65 85,-30 C 85,5 65,30 20,30 L -55,30" fill="none" stroke="#D9DCE3" stroke-width="26"/>
        <!-- Classic Sturdy Diagonal Leg (50 deg English R leg, NO trailing Persian crescent) -->
        <line x1="5" y1="25" x2="70" y2="95" stroke="#D9DCE3" stroke-width="26"/>
        <!-- Royal Purple Accent inside bowl -->
        <circle cx="-10" cy="-32" r="10" fill="#503A70"/>
      </g>
    </g>
    
        </g>
      </g>
    </g>

    <!-- Opt 2 Ivory Favicon & Apple -->
    <g transform="translate(1180, 0)">
      <text x="525" y="-18" font-family="Montserrat, sans-serif" font-size="16px" font-weight="700" fill="#D9DCE3" letter-spacing="3" text-anchor="middle">OPTION 2 — FAVICON 32 &amp; iOS 180PX (IVORY BACKGROUND)</text>
      <g filter="url(#shadow)">
        <rect width="1050" height="340" rx="16" fill="#FAF7F2" stroke="#D4D4D8" stroke-width="2"/>
      </g>
      <g transform="translate(300, 170)">
        <rect x="-70" y="-70" width="140" height="140" rx="24" fill="#0D0D10" stroke="#503A70" stroke-width="3"/>
        <text x="0" y="-95" font-family="Montserrat, sans-serif" font-size="14px" font-weight="700" fill="#0D0D10" text-anchor="middle">32×32 FAVICON</text>
        <g transform="scale(0.38)">
          
    <g transform="translate(256, 256) scale(1.0)">
      <!-- Hexagonal Shield Badge -->
      <g stroke="#D9DCE3" stroke-width="6" fill="none" stroke-linejoin="round">
        <polygon points="0,-175 130,-125 175,0 130,125 0,175 -130,125 -175,0 -130,-125"/>
        <polygon points="0,-152 112,-108 152,0 112,108 0,152 -112,108 -152,0 -112,-108" stroke="#503A70" stroke-width="3" opacity="0.8"/>
      </g>
      <circle cx="0" cy="-175" r="7" fill="#8664B0"/>
      <circle cx="0" cy="175" r="7" fill="#8664B0"/>

      <!-- Pristine English Capital 'R' -->
      <g stroke-linecap="round" stroke-linejoin="round">
        <line x1="-50" y1="-90" x2="-50" y2="90" stroke="#D9DCE3" stroke-width="28"/>
        <path d="M -50,-90 L 18,-90 C 65,-90 85,-60 85,-25 C 85,10 65,35 18,35 L -50,35" fill="none" stroke="#D9DCE3" stroke-width="28"/>
        <line x1="5" y1="30" x2="68" y2="90" stroke="#D9DCE3" stroke-width="28"/>
        <!-- Purple speed slash inside shield -->
        <line x1="-80" y1="115" x2="80" y2="115" stroke="#503A70" stroke-width="8" stroke-linecap="round"/>
      </g>
    </g>
    
        </g>
      </g>
      <g transform="translate(750, 170)">
        <rect x="-105" y="-105" width="210" height="210" rx="46" fill="#0D0D10" stroke="#503A70" stroke-width="3"/>
        <text x="0" y="-130" font-family="Montserrat, sans-serif" font-size="14px" font-weight="700" fill="#0D0D10" text-anchor="middle">180PX APPLE iOS</text>
        <g transform="scale(0.58)">
          
    <g transform="translate(256, 256) scale(1.0)">
      <!-- Hexagonal Shield Badge -->
      <g stroke="#D9DCE3" stroke-width="6" fill="none" stroke-linejoin="round">
        <polygon points="0,-175 130,-125 175,0 130,125 0,175 -130,125 -175,0 -130,-125"/>
        <polygon points="0,-152 112,-108 152,0 112,108 0,152 -112,108 -152,0 -112,-108" stroke="#503A70" stroke-width="3" opacity="0.8"/>
      </g>
      <circle cx="0" cy="-175" r="7" fill="#8664B0"/>
      <circle cx="0" cy="175" r="7" fill="#8664B0"/>

      <!-- Pristine English Capital 'R' -->
      <g stroke-linecap="round" stroke-linejoin="round">
        <line x1="-50" y1="-90" x2="-50" y2="90" stroke="#D9DCE3" stroke-width="28"/>
        <path d="M -50,-90 L 18,-90 C 65,-90 85,-60 85,-25 C 85,10 65,35 18,35 L -50,35" fill="none" stroke="#D9DCE3" stroke-width="28"/>
        <line x1="5" y1="30" x2="68" y2="90" stroke="#D9DCE3" stroke-width="28"/>
        <!-- Purple speed slash inside shield -->
        <line x1="-80" y1="115" x2="80" y2="115" stroke="#503A70" stroke-width="8" stroke-linecap="round"/>
      </g>
    </g>
    
        </g>
      </g>
    </g>

    <!-- Opt 3 Ivory Favicon & Apple -->
    <g transform="translate(2360, 0)">
      <text x="525" y="-18" font-family="Montserrat, sans-serif" font-size="16px" font-weight="700" fill="#D9DCE3" letter-spacing="3" text-anchor="middle">OPTION 3 — FAVICON 32 &amp; iOS 180PX (IVORY BACKGROUND)</text>
      <g filter="url(#shadow)">
        <rect width="1050" height="340" rx="16" fill="#FAF7F2" stroke="#D4D4D8" stroke-width="2"/>
      </g>
      <g transform="translate(300, 170)">
        <rect x="-70" y="-70" width="140" height="140" rx="24" fill="#0D0D10" stroke="#503A70" stroke-width="3"/>
        <text x="0" y="-95" font-family="Montserrat, sans-serif" font-size="14px" font-weight="700" fill="#0D0D10" text-anchor="middle">32×32 FAVICON</text>
        <g transform="scale(0.38)">
          
    <g transform="translate(256, 256) scale(1.0)">
      <!-- Clean Chic Circle -->
      <circle cx="0" cy="0" r="165" fill="none" stroke="#D9DCE3" stroke-width="5" opacity="0.7"/>
      <circle cx="0" cy="0" r="150" fill="none" stroke="#D9DCE3" stroke-width="1.5" stroke-dasharray="10 6" opacity="0.4"/>
      
      <!-- Pure English Capital 'R' positioned slightly above center -->
      <g transform="translate(0, -25)" stroke-linecap="round" stroke-linejoin="round">
        <line x1="-55" y1="-75" x2="-55" y2="75" stroke="#D9DCE3" stroke-width="26"/>
        <path d="M -55,-75 L 18,-75 C 65,-75 85,-48 85,-15 C 85,18 65,40 18,40 L -55,40" fill="none" stroke="#D9DCE3" stroke-width="26"/>
        <line x1="5" y1="35" x2="68" y2="75" stroke="#D9DCE3" stroke-width="26"/>
      </g>
      
      <!-- Horizontal Horizon Blade Line ('Ye Khat') below R -->
      <g transform="translate(-115, 95)">
        <path d="M 0,0 L 200,0 L 215,-6 L 8,-6 Z" fill="#503A70"/>
        <path d="M 0,0 L 200,0 L 215,-2.5 L 8,-2.5 Z" fill="#8664B0"/>
        <polygon points="222,-6 242,-6 235,0 215,0" fill="#D9DCE3"/>
      </g>
    </g>
    
        </g>
      </g>
      <g transform="translate(750, 170)">
        <rect x="-105" y="-105" width="210" height="210" rx="46" fill="#0D0D10" stroke="#503A70" stroke-width="3"/>
        <text x="0" y="-130" font-family="Montserrat, sans-serif" font-size="14px" font-weight="700" fill="#0D0D10" text-anchor="middle">180PX APPLE iOS</text>
        <g transform="scale(0.58)">
          
    <g transform="translate(256, 256) scale(1.0)">
      <!-- Clean Chic Circle -->
      <circle cx="0" cy="0" r="165" fill="none" stroke="#D9DCE3" stroke-width="5" opacity="0.7"/>
      <circle cx="0" cy="0" r="150" fill="none" stroke="#D9DCE3" stroke-width="1.5" stroke-dasharray="10 6" opacity="0.4"/>
      
      <!-- Pure English Capital 'R' positioned slightly above center -->
      <g transform="translate(0, -25)" stroke-linecap="round" stroke-linejoin="round">
        <line x1="-55" y1="-75" x2="-55" y2="75" stroke="#D9DCE3" stroke-width="26"/>
        <path d="M -55,-75 L 18,-75 C 65,-75 85,-48 85,-15 C 85,18 65,40 18,40 L -55,40" fill="none" stroke="#D9DCE3" stroke-width="26"/>
        <line x1="5" y1="35" x2="68" y2="75" stroke="#D9DCE3" stroke-width="26"/>
      </g>
      
      <!-- Horizontal Horizon Blade Line ('Ye Khat') below R -->
      <g transform="translate(-115, 95)">
        <path d="M 0,0 L 200,0 L 215,-6 L 8,-6 Z" fill="#503A70"/>
        <path d="M 0,0 L 200,0 L 215,-2.5 L 8,-2.5 Z" fill="#8664B0"/>
        <polygon points="222,-6 242,-6 235,0 215,0" fill="#D9DCE3"/>
      </g>
    </g>
    
        </g>
      </g>
    </g>

  </g>

  <!-- ========================================== -->
  <!-- ROW 4: ARCHITECTURAL ASSURANCE & SUMMARY -->
  <!-- ========================================== -->
  <g transform="translate(100, 1660)">
    <rect width="3400" height="780" rx="20" fill="#14141A" stroke="#503A70" stroke-width="2.5"/>
    <text x="1700" y="90" font-family="Montserrat, sans-serif" font-size="34px" font-weight="800" fill="#D9DCE3" letter-spacing="6" text-anchor="middle">WHY THESE 3 ENGLISH CAPITAL 'R' MONOGRAMS ARE 100% DISTINCT AND BEAUTIFUL</text>
    
    <g transform="translate(250, 200)">
      <text x="0" y="0" font-family="Montserrat, sans-serif" font-size="28px" font-weight="800" fill="#FFFFFF">✓  1. PURE ENGLISH CAPITAL 'R' (ZERO PERSIAN 'RE' RESEMBLANCE):</text>
      <text x="50" y="55" font-family="Montserrat, sans-serif" font-size="22px" fill="#A1A1AA">Standard English letterform geometry: solid vertical stem, perfectly round upper bowl, and classic sturdy diagonal leg.</text>
      
      <text x="0" y="150" font-family="Montserrat, sans-serif" font-size="28px" font-weight="800" fill="#FFFFFF">✓  2. MATHEMATICALLY CENTERED (ZERO OVERLAPPING OR CLIPPED CARDS):</text>
      <text x="50" y="205" font-family="Montserrat, sans-serif" font-size="22px" fill="#A1A1AA">Every single card has 100px+ gaps and precise internal coordinates. Zero overlapping images anywhere on this sheet.</text>
      
      <text x="0" y="300" font-family="Montserrat, sans-serif" font-size="28px" font-weight="800" fill="#FFFFFF">✓  3. OPTION 1 — THE CHIC CROWNED-WING 'R':</text>
      <text x="50" y="355" font-family="Montserrat, sans-serif" font-size="22px" fill="#A1A1AA">Symmetrical, regal, balanced, and looks like a Parisian/Italian Haute Joaillerie &amp; Motorsport emblem (like Apple, Chanel, or Dainese).</text>
      
      <text x="0" y="450" font-family="Montserrat, sans-serif" font-size="28px" font-weight="800" fill="#FFFFFF">✓  4. OPTION 2 — THE MOTORSPORT SHIELD &amp; OPTION 3 — THE SPEED BLADE:</text>
      <text x="50" y="505" font-family="Montserrat, sans-serif" font-size="22px" fill="#A1A1AA">Option 2 offers a chic hexagonal enamel badge. Option 3 echoes the exact horizontal speed slash line ('ye khat') of your approved wordmark.</text>
    </g>
  </g>

  <!-- Footer Info -->
  <text x="1800" y="2530" font-family="Montserrat, sans-serif" font-size="16px" fill="#71717A" letter-spacing="6" text-anchor="middle">RIDELIN MOTORCYCLE ACCESSORIES • WOMEN-FIRST UNISEX PERFORMANCE MOTO GEAR • TEHRAN / IRAN • 100% PURE ENGLISH 'R' MONOGRAM SUITE</text>
</svg>