<?xml version="1.0" encoding="UTF-8"?>
<svg xmlns="http://www.w3.org/2000/svg" viewBox="0 0 3000 2000" width="100%" height="100%">
  <defs>
    <linearGradient id="review-bg" x1="0%" y1="0%" x2="100%" y2="100%">
      <stop offset="0%" stop-color="#121217"/>
      <stop offset="100%" stop-color="#09090C"/>
    </linearGradient>
    <filter id="shadow" x="-10%" y="-10%" width="120%" height="120%">
      <feDropShadow dx="0" dy="15" stdDeviation="15" flood-color="#000000" flood-opacity="0.8"/>
    </filter>
  </defs>

  <rect width="3000" height="2000" fill="url(#review-bg)"/>

  <!-- Top Header -->
  <line x1="100" y1="50" x2="2900" y2="50" stroke="#503A70" stroke-width="3" opacity="0.8"/>
  <text x="1500" y="105" font-family="Montserrat, sans-serif" font-size="36px" font-weight="700" fill="#D9DCE3" letter-spacing="8" text-anchor="middle">RIDELIN — PRETTIER INSTAGRAM &amp; SOCIAL MONOGRAM COMPARISON (3 CHIC DIRECTIONS)</text>
  <text x="1500" y="145" font-family="Montserrat, sans-serif" font-size="16px" font-weight="600" fill="#8664B0" letter-spacing="6" text-anchor="middle">MATTE BLACK (#0D0D10) • DEEP ROYAL PURPLE (#503A70) • PLATINUM (#D9DCE3) • IVORY (#FAF7F2)</text>
  <line x1="100" y1="180" x2="2900" y2="180" stroke="#503A70" stroke-width="3" opacity="0.8"/>

  <!-- ========================================== -->
  <!-- ROW 1: THE 3 NEW PRETTIER MONOGRAMS ON MATTE BLACK -->
  <!-- ========================================== -->
  <g transform="translate(100, 240)">
    <!-- Opt 1 -->
    <g transform="translate(0, 0)">
      <text x="440" y="-15" font-family="Montserrat, sans-serif" font-size="18px" font-weight="700" fill="#8664B0" letter-spacing="3" text-anchor="middle">1. OPTION 1 — THE CHIC CROWNED-WING 'R'</text>
      <g filter="url(#shadow)">
        <rect width="880" height="420" rx="16" fill="#0D0D10" stroke="#503A70" stroke-width="2.5"/>
      </g>
      <g transform="translate(440, 210) scale(0.68)">
        
    <g transform="translate(256, 256) scale(1.0)">
      <!-- Luxurious Chic Ring Frame -->
      <circle cx="0" cy="0" r="160" fill="none" stroke="#D9DCE3" stroke-width="4" opacity="0.85"/>
      <circle cx="0" cy="0" r="145" fill="none" stroke="#503A70" stroke-width="2.5" stroke-dasharray="12 8" opacity="0.9"/>
      <!-- Top Diamond Speed Crest -->
      <polygon points="0,-175 6,-162 0,-155 -6,-162" fill="#8664B0"/>
      
      <!-- Perfectly Balanced, Elegant Chic 'R' -->
      <g stroke-linecap="round" stroke-linejoin="round">
        <!-- R Vertical Stem (Sleek & sturdy) -->
        <line x1="-45" y1="-85" x2="-45" y2="85" stroke="#D9DCE3" stroke-width="22"/>
        <!-- R Upper Bowl (High-fashion curve) -->
        <path d="M -45,-85 L 25,-85 C 65,-85 85,-58 85,-25 C 85,8 65,30 25,30 L -45,30" fill="none" stroke="#D9DCE3" stroke-width="22"/>
        <!-- Graceful Sweeping Diagonal Leg (Balanced Road Wing) -->
        <path d="M -5,30 C 20,30 45,52 75,85" fill="none" stroke="#D9DCE3" stroke-width="22"/>
        <path d="M -5,30 C 20,30 45,52 75,85" fill="none" stroke="#8664B0" stroke-width="8" opacity="0.95"/>
      </g>
      <!-- Kinetic Purple Horizon Wing Accent integrated smoothly in bowl -->
      <path d="M -15,-25 C 10,-25 35,-25 55,-40" fill="none" stroke="#503A70" stroke-width="10" stroke-linecap="round"/>
      <circle cx="-85" cy="-85" r="8" fill="#503A70"/>
    </g>
    
      </g>
      <text x="440" y="380" font-family="Montserrat, sans-serif" font-size="14px" font-weight="700" fill="#D9DCE3" text-anchor="middle">ELEGANT, SYMMETRICAL, PARISIAN HAUTE CHIC RING</text>
    </g>

    <!-- Opt 2 -->
    <g transform="translate(960, 0)">
      <text x="440" y="-15" font-family="Montserrat, sans-serif" font-size="18px" font-weight="700" fill="#8664B0" letter-spacing="3" text-anchor="middle">2. OPTION 2 — AERODYNAMIC ROAD-MEDALLION 'R'</text>
      <g filter="url(#shadow)">
        <rect width="880" height="420" rx="16" fill="#0D0D10" stroke="#503A70" stroke-width="2.5"/>
      </g>
      <g transform="translate(440, 210) scale(0.68)">
        
    <g transform="translate(256, 256) scale(1.0)">
      <!-- Aerodynamic Octagonal Medallion Frame -->
      <g stroke="#D9DCE3" stroke-width="5" fill="none" stroke-linejoin="round">
        <polygon points="0,-170 120,-120 170,0 120,120 0,170 -120,120 -170,0 -120,-120"/>
        <polygon points="0,-150 105,-105 150,0 105,105 0,150 -105,105 -150,0 -105,-105" stroke="#503A70" stroke-width="3" opacity="0.8"/>
      </g>
      <!-- Radiant Points -->
      <circle cx="0" cy="-170" r="6" fill="#8664B0"/>
      <circle cx="0" cy="170" r="6" fill="#8664B0"/>
      
      <!-- Modern Bold Geometric 'R' with Integrated Speed Slash -->
      <g stroke-linecap="round" stroke-linejoin="round">
        <line x1="-40" y1="-80" x2="-40" y2="80" stroke="#D9DCE3" stroke-width="24"/>
        <path d="M -40,-80 L 25,-80 C 68,-80 88,-55 88,-20 C 88,15 68,35 25,35 L -40,35" fill="none" stroke="#D9DCE3" stroke-width="24"/>
        <path d="M 0,35 C 25,35 45,55 75,82" fill="none" stroke="#503A70" stroke-width="24"/>
        <path d="M 0,35 C 25,35 45,55 75,82" fill="none" stroke="#8664B0" stroke-width="8" opacity="0.9"/>
      </g>
      <!-- Speed Blade Slash Line Inside Badge -->
      <path d="M -90,95 L 90,95" stroke="#D9DCE3" stroke-width="6" stroke-linecap="round" opacity="0.6"/>
    </g>
    
      </g>
      <text x="440" y="380" font-family="Montserrat, sans-serif" font-size="14px" font-weight="700" fill="#D9DCE3" text-anchor="middle">MODERN MOTORSPORT CHIC HEXAGONAL BADGE</text>
    </g>

    <!-- Opt 3 -->
    <g transform="translate(1920, 0)">
      <text x="440" y="-15" font-family="Montserrat, sans-serif" font-size="18px" font-weight="700" fill="#8664B0" letter-spacing="3" text-anchor="middle">3. OPTION 3 — MINIMALIST 'R' IN CHIC SPEED RING</text>
      <g filter="url(#shadow)">
        <rect width="880" height="420" rx="16" fill="#0D0D10" stroke="#503A70" stroke-width="2.5"/>
      </g>
      <g transform="translate(440, 210) scale(0.68)">
        
    <g transform="translate(256, 256) scale(1.0)">
      <!-- Kinetic Horizon Speed Ring (Circle turns into highway curve) -->
      <circle cx="0" cy="0" r="165" fill="none" stroke="#D9DCE3" stroke-width="3" opacity="0.3"/>
      <path d="M -165,0 C -165,-90 -90,-165 0,-165 C 90,-165 165,-90 165,0 C 165,60 120,165 20,165" fill="none" stroke="#503A70" stroke-width="12" stroke-linecap="round"/>
      <path d="M -165,0 C -165,-90 -90,-165 0,-165 C 90,-165 165,-90 165,0 C 165,60 120,165 20,165" fill="none" stroke="#8664B0" stroke-width="4" stroke-linecap="round" opacity="0.9"/>
      <circle cx="20" cy="165" r="8" fill="#8664B0"/>

      <!-- Pure, High-Fashion Sturdy Capital 'R' -->
      <g stroke-linecap="round" stroke-linejoin="round">
        <line x1="-40" y1="-85" x2="-40" y2="85" stroke="#D9DCE3" stroke-width="26"/>
        <path d="M -40,-85 L 25,-85 C 70,-85 92,-55 92,-20 C 92,15 70,40 25,40 L -40,40" fill="none" stroke="#D9DCE3" stroke-width="26"/>
        <path d="M -5,40 L 75,85" stroke="#D9DCE3" stroke-width="26"/>
      </g>
    </g>
    
      </g>
      <text x="440" y="380" font-family="Montserrat, sans-serif" font-size="14px" font-weight="700" fill="#D9DCE3" text-anchor="middle">TIMELESS, PURE, KINETIC HIGHWAY SPEED RING</text>
    </g>
  </g>

  <!-- ========================================== -->
  <!-- ROW 2: INSTAGRAM PROFILE SIMULATION (@ridelin.ir) FOR EACH -->
  <!-- ========================================== -->
  <g transform="translate(100, 750)">
    
    <!-- Opt 1 Insta -->
    <g transform="translate(0, 0)">
      <text x="440" y="-15" font-family="Montserrat, sans-serif" font-size="16px" font-weight="700" fill="#D9DCE3" letter-spacing="3" text-anchor="middle">INSTAGRAM PROFILE PREVIEW — OPTION 1</text>
      <g filter="url(#shadow)">
        <rect width="880" height="320" rx="14" fill="#14141A" stroke="#3F3F46" stroke-width="1.5"/>
      </g>
      <circle cx="160" cy="160" r="85" fill="#0D0D10" stroke="#503A70" stroke-width="3"/>
      <g transform="translate(160, 160) scale(0.48)">
        
    <g transform="translate(256, 256) scale(1.0)">
      <!-- Luxurious Chic Ring Frame -->
      <circle cx="0" cy="0" r="160" fill="none" stroke="#D9DCE3" stroke-width="4" opacity="0.85"/>
      <circle cx="0" cy="0" r="145" fill="none" stroke="#503A70" stroke-width="2.5" stroke-dasharray="12 8" opacity="0.9"/>
      <!-- Top Diamond Speed Crest -->
      <polygon points="0,-175 6,-162 0,-155 -6,-162" fill="#8664B0"/>
      
      <!-- Perfectly Balanced, Elegant Chic 'R' -->
      <g stroke-linecap="round" stroke-linejoin="round">
        <!-- R Vertical Stem (Sleek & sturdy) -->
        <line x1="-45" y1="-85" x2="-45" y2="85" stroke="#D9DCE3" stroke-width="22"/>
        <!-- R Upper Bowl (High-fashion curve) -->
        <path d="M -45,-85 L 25,-85 C 65,-85 85,-58 85,-25 C 85,8 65,30 25,30 L -45,30" fill="none" stroke="#D9DCE3" stroke-width="22"/>
        <!-- Graceful Sweeping Diagonal Leg (Balanced Road Wing) -->
        <path d="M -5,30 C 20,30 45,52 75,85" fill="none" stroke="#D9DCE3" stroke-width="22"/>
        <path d="M -5,30 C 20,30 45,52 75,85" fill="none" stroke="#8664B0" stroke-width="8" opacity="0.95"/>
      </g>
      <!-- Kinetic Purple Horizon Wing Accent integrated smoothly in bowl -->
      <path d="M -15,-25 C 10,-25 35,-25 55,-40" fill="none" stroke="#503A70" stroke-width="10" stroke-linecap="round"/>
      <circle cx="-85" cy="-85" r="8" fill="#503A70"/>
    </g>
    
      </g>
      <text x="280" y="115" font-family="Montserrat, sans-serif" font-size="28px" font-weight="700" fill="#FFFFFF">@ridelin.ir</text>
      <text x="280" y="155" font-family="Montserrat, sans-serif" font-size="16px" font-weight="600" fill="#D9DCE3">RIDELIN — Modern Chic Moto Gear</text>
      <text x="280" y="185" font-family="Montserrat, sans-serif" font-size="14px" fill="#A1A1AA">Women-First • Subtle Feminine Elegance</text>
      <text x="280" y="215" font-family="Montserrat, sans-serif" font-size="15px" font-weight="700" fill="#8664B0">ridelin.ir</text>
    </g>

    <!-- Opt 2 Insta -->
    <g transform="translate(960, 0)">
      <text x="440" y="-15" font-family="Montserrat, sans-serif" font-size="16px" font-weight="700" fill="#D9DCE3" letter-spacing="3" text-anchor="middle">INSTAGRAM PROFILE PREVIEW — OPTION 2</text>
      <g filter="url(#shadow)">
        <rect width="880" height="320" rx="14" fill="#14141A" stroke="#3F3F46" stroke-width="1.5"/>
      </g>
      <circle cx="160" cy="160" r="85" fill="#0D0D10" stroke="#503A70" stroke-width="3"/>
      <g transform="translate(160, 160) scale(0.48)">
        
    <g transform="translate(256, 256) scale(1.0)">
      <!-- Aerodynamic Octagonal Medallion Frame -->
      <g stroke="#D9DCE3" stroke-width="5" fill="none" stroke-linejoin="round">
        <polygon points="0,-170 120,-120 170,0 120,120 0,170 -120,120 -170,0 -120,-120"/>
        <polygon points="0,-150 105,-105 150,0 105,105 0,150 -105,105 -150,0 -105,-105" stroke="#503A70" stroke-width="3" opacity="0.8"/>
      </g>
      <!-- Radiant Points -->
      <circle cx="0" cy="-170" r="6" fill="#8664B0"/>
      <circle cx="0" cy="170" r="6" fill="#8664B0"/>
      
      <!-- Modern Bold Geometric 'R' with Integrated Speed Slash -->
      <g stroke-linecap="round" stroke-linejoin="round">
        <line x1="-40" y1="-80" x2="-40" y2="80" stroke="#D9DCE3" stroke-width="24"/>
        <path d="M -40,-80 L 25,-80 C 68,-80 88,-55 88,-20 C 88,15 68,35 25,35 L -40,35" fill="none" stroke="#D9DCE3" stroke-width="24"/>
        <path d="M 0,35 C 25,35 45,55 75,82" fill="none" stroke="#503A70" stroke-width="24"/>
        <path d="M 0,35 C 25,35 45,55 75,82" fill="none" stroke="#8664B0" stroke-width="8" opacity="0.9"/>
      </g>
      <!-- Speed Blade Slash Line Inside Badge -->
      <path d="M -90,95 L 90,95" stroke="#D9DCE3" stroke-width="6" stroke-linecap="round" opacity="0.6"/>
    </g>
    
      </g>
      <text x="280" y="115" font-family="Montserrat, sans-serif" font-size="28px" font-weight="700" fill="#FFFFFF">@ridelin.ir</text>
      <text x="280" y="155" font-family="Montserrat, sans-serif" font-size="16px" font-weight="600" fill="#D9DCE3">RIDELIN — Modern Chic Moto Gear</text>
      <text x="280" y="185" font-family="Montserrat, sans-serif" font-size="14px" fill="#A1A1AA">Women-First • Subtle Feminine Elegance</text>
      <text x="280" y="215" font-family="Montserrat, sans-serif" font-size="15px" font-weight="700" fill="#8664B0">ridelin.ir</text>
    </g>

    <!-- Opt 3 Insta -->
    <g transform="translate(1920, 0)">
      <text x="440" y="-15" font-family="Montserrat, sans-serif" font-size="16px" font-weight="700" fill="#D9DCE3" letter-spacing="3" text-anchor="middle">INSTAGRAM PROFILE PREVIEW — OPTION 3</text>
      <g filter="url(#shadow)">
        <rect width="880" height="320" rx="14" fill="#14141A" stroke="#3F3F46" stroke-width="1.5"/>
      </g>
      <circle cx="160" cy="160" r="85" fill="#0D0D10" stroke="#503A70" stroke-width="3"/>
      <g transform="translate(160, 160) scale(0.48)">
        
    <g transform="translate(256, 256) scale(1.0)">
      <!-- Kinetic Horizon Speed Ring (Circle turns into highway curve) -->
      <circle cx="0" cy="0" r="165" fill="none" stroke="#D9DCE3" stroke-width="3" opacity="0.3"/>
      <path d="M -165,0 C -165,-90 -90,-165 0,-165 C 90,-165 165,-90 165,0 C 165,60 120,165 20,165" fill="none" stroke="#503A70" stroke-width="12" stroke-linecap="round"/>
      <path d="M -165,0 C -165,-90 -90,-165 0,-165 C 90,-165 165,-90 165,0 C 165,60 120,165 20,165" fill="none" stroke="#8664B0" stroke-width="4" stroke-linecap="round" opacity="0.9"/>
      <circle cx="20" cy="165" r="8" fill="#8664B0"/>

      <!-- Pure, High-Fashion Sturdy Capital 'R' -->
      <g stroke-linecap="round" stroke-linejoin="round">
        <line x1="-40" y1="-85" x2="-40" y2="85" stroke="#D9DCE3" stroke-width="26"/>
        <path d="M -40,-85 L 25,-85 C 70,-85 92,-55 92,-20 C 92,15 70,40 25,40 L -40,40" fill="none" stroke="#D9DCE3" stroke-width="26"/>
        <path d="M -5,40 L 75,85" stroke="#D9DCE3" stroke-width="26"/>
      </g>
    </g>
    
      </g>
      <text x="280" y="115" font-family="Montserrat, sans-serif" font-size="28px" font-weight="700" fill="#FFFFFF">@ridelin.ir</text>
      <text x="280" y="155" font-family="Montserrat, sans-serif" font-size="16px" font-weight="600" fill="#D9DCE3">RIDELIN — Modern Chic Moto Gear</text>
      <text x="280" y="185" font-family="Montserrat, sans-serif" font-size="14px" fill="#A1A1AA">Women-First • Subtle Feminine Elegance</text>
      <text x="280" y="215" font-family="Montserrat, sans-serif" font-size="15px" font-weight="700" fill="#8664B0">ridelin.ir</text>
    </g>

  </g>

  <!-- ========================================== -->
  <!-- ROW 3: FAVICON 32PX & LIGHT THEME (IVORY) PREVIEW -->
  <!-- ========================================== -->
  <g transform="translate(100, 1160)">
    
    <!-- Opt 1 Ivory -->
    <g transform="translate(0, 0)">
      <text x="440" y="-15" font-family="Montserrat, sans-serif" font-size="16px" font-weight="700" fill="#D9DCE3" letter-spacing="3" text-anchor="middle">OPTION 1 ON IVORY (#FAF7F2) &amp; FAVICON 32</text>
      <g filter="url(#shadow)">
        <rect width="880" height="380" rx="14" fill="#FAF7F2" stroke="#D4D4D8" stroke-width="2"/>
      </g>
      <g transform="translate(300, 190) scale(0.6)">
        
    <g transform="translate(256, 256) scale(1.0)">
      <!-- Luxurious Chic Ring Frame -->
      <circle cx="0" cy="0" r="160" fill="none" stroke="#0D0D10" stroke-width="4" opacity="0.85"/>
      <circle cx="0" cy="0" r="145" fill="none" stroke="#503A70" stroke-width="2.5" stroke-dasharray="12 8" opacity="0.9"/>
      <!-- Top Diamond Speed Crest -->
      <polygon points="0,-175 6,-162 0,-155 -6,-162" fill="#503A70"/>
      
      <!-- Perfectly Balanced, Elegant Chic 'R' -->
      <g stroke-linecap="round" stroke-linejoin="round">
        <!-- R Vertical Stem (Sleek & sturdy) -->
        <line x1="-45" y1="-85" x2="-45" y2="85" stroke="#0D0D10" stroke-width="22"/>
        <!-- R Upper Bowl (High-fashion curve) -->
        <path d="M -45,-85 L 25,-85 C 65,-85 85,-58 85,-25 C 85,8 65,30 25,30 L -45,30" fill="none" stroke="#0D0D10" stroke-width="22"/>
        <!-- Graceful Sweeping Diagonal Leg (Balanced Road Wing) -->
        <path d="M -5,30 C 20,30 45,52 75,85" fill="none" stroke="#0D0D10" stroke-width="22"/>
        <path d="M -5,30 C 20,30 45,52 75,85" fill="none" stroke="#503A70" stroke-width="8" opacity="0.95"/>
      </g>
      <!-- Kinetic Purple Horizon Wing Accent integrated smoothly in bowl -->
      <path d="M -15,-25 C 10,-25 35,-25 55,-40" fill="none" stroke="#503A70" stroke-width="10" stroke-linecap="round"/>
      <circle cx="-85" cy="-85" r="8" fill="#503A70"/>
    </g>
    
      </g>
      <g transform="translate(680, 190)">
        <rect x="-60" y="-60" width="120" height="120" rx="20" fill="#0D0D10" stroke="#503A70" stroke-width="2"/>
        <text x="0" y="-80" font-family="Montserrat, sans-serif" font-size="13px" fill="#0D0D10" text-anchor="middle">32×32 FAVICON</text>
        <g transform="scale(0.35)">
          
    <g transform="translate(256, 256) scale(1.0)">
      <!-- Luxurious Chic Ring Frame -->
      <circle cx="0" cy="0" r="160" fill="none" stroke="#D9DCE3" stroke-width="4" opacity="0.85"/>
      <circle cx="0" cy="0" r="145" fill="none" stroke="#503A70" stroke-width="2.5" stroke-dasharray="12 8" opacity="0.9"/>
      <!-- Top Diamond Speed Crest -->
      <polygon points="0,-175 6,-162 0,-155 -6,-162" fill="#8664B0"/>
      
      <!-- Perfectly Balanced, Elegant Chic 'R' -->
      <g stroke-linecap="round" stroke-linejoin="round">
        <!-- R Vertical Stem (Sleek & sturdy) -->
        <line x1="-45" y1="-85" x2="-45" y2="85" stroke="#D9DCE3" stroke-width="22"/>
        <!-- R Upper Bowl (High-fashion curve) -->
        <path d="M -45,-85 L 25,-85 C 65,-85 85,-58 85,-25 C 85,8 65,30 25,30 L -45,30" fill="none" stroke="#D9DCE3" stroke-width="22"/>
        <!-- Graceful Sweeping Diagonal Leg (Balanced Road Wing) -->
        <path d="M -5,30 C 20,30 45,52 75,85" fill="none" stroke="#D9DCE3" stroke-width="22"/>
        <path d="M -5,30 C 20,30 45,52 75,85" fill="none" stroke="#8664B0" stroke-width="8" opacity="0.95"/>
      </g>
      <!-- Kinetic Purple Horizon Wing Accent integrated smoothly in bowl -->
      <path d="M -15,-25 C 10,-25 35,-25 55,-40" fill="none" stroke="#503A70" stroke-width="10" stroke-linecap="round"/>
      <circle cx="-85" cy="-85" r="8" fill="#503A70"/>
    </g>
    
        </g>
      </g>
    </g>

    <!-- Opt 2 Ivory -->
    <g transform="translate(960, 0)">
      <text x="440" y="-15" font-family="Montserrat, sans-serif" font-size="16px" font-weight="700" fill="#D9DCE3" letter-spacing="3" text-anchor="middle">OPTION 2 ON IVORY (#FAF7F2) &amp; FAVICON 32</text>
      <g filter="url(#shadow)">
        <rect width="880" height="380" rx="14" fill="#FAF7F2" stroke="#D4D4D8" stroke-width="2"/>
      </g>
      <g transform="translate(300, 190) scale(0.6)">
        
    <g transform="translate(256, 256) scale(1.0)">
      <!-- Aerodynamic Octagonal Medallion Frame -->
      <g stroke="#0D0D10" stroke-width="5" fill="none" stroke-linejoin="round">
        <polygon points="0,-170 120,-120 170,0 120,120 0,170 -120,120 -170,0 -120,-120"/>
        <polygon points="0,-150 105,-105 150,0 105,105 0,150 -105,105 -150,0 -105,-105" stroke="#503A70" stroke-width="3" opacity="0.8"/>
      </g>
      <!-- Radiant Points -->
      <circle cx="0" cy="-170" r="6" fill="#503A70"/>
      <circle cx="0" cy="170" r="6" fill="#503A70"/>
      
      <!-- Modern Bold Geometric 'R' with Integrated Speed Slash -->
      <g stroke-linecap="round" stroke-linejoin="round">
        <line x1="-40" y1="-80" x2="-40" y2="80" stroke="#0D0D10" stroke-width="24"/>
        <path d="M -40,-80 L 25,-80 C 68,-80 88,-55 88,-20 C 88,15 68,35 25,35 L -40,35" fill="none" stroke="#0D0D10" stroke-width="24"/>
        <path d="M 0,35 C 25,35 45,55 75,82" fill="none" stroke="#503A70" stroke-width="24"/>
        <path d="M 0,35 C 25,35 45,55 75,82" fill="none" stroke="#503A70" stroke-width="8" opacity="0.9"/>
      </g>
      <!-- Speed Blade Slash Line Inside Badge -->
      <path d="M -90,95 L 90,95" stroke="#0D0D10" stroke-width="6" stroke-linecap="round" opacity="0.6"/>
    </g>
    
      </g>
      <g transform="translate(680, 190)">
        <rect x="-60" y="-60" width="120" height="120" rx="20" fill="#0D0D10" stroke="#503A70" stroke-width="2"/>
        <text x="0" y="-80" font-family="Montserrat, sans-serif" font-size="13px" fill="#0D0D10" text-anchor="middle">32×32 FAVICON</text>
        <g transform="scale(0.35)">
          
    <g transform="translate(256, 256) scale(1.0)">
      <!-- Aerodynamic Octagonal Medallion Frame -->
      <g stroke="#D9DCE3" stroke-width="5" fill="none" stroke-linejoin="round">
        <polygon points="0,-170 120,-120 170,0 120,120 0,170 -120,120 -170,0 -120,-120"/>
        <polygon points="0,-150 105,-105 150,0 105,105 0,150 -105,105 -150,0 -105,-105" stroke="#503A70" stroke-width="3" opacity="0.8"/>
      </g>
      <!-- Radiant Points -->
      <circle cx="0" cy="-170" r="6" fill="#8664B0"/>
      <circle cx="0" cy="170" r="6" fill="#8664B0"/>
      
      <!-- Modern Bold Geometric 'R' with Integrated Speed Slash -->
      <g stroke-linecap="round" stroke-linejoin="round">
        <line x1="-40" y1="-80" x2="-40" y2="80" stroke="#D9DCE3" stroke-width="24"/>
        <path d="M -40,-80 L 25,-80 C 68,-80 88,-55 88,-20 C 88,15 68,35 25,35 L -40,35" fill="none" stroke="#D9DCE3" stroke-width="24"/>
        <path d="M 0,35 C 25,35 45,55 75,82" fill="none" stroke="#503A70" stroke-width="24"/>
        <path d="M 0,35 C 25,35 45,55 75,82" fill="none" stroke="#8664B0" stroke-width="8" opacity="0.9"/>
      </g>
      <!-- Speed Blade Slash Line Inside Badge -->
      <path d="M -90,95 L 90,95" stroke="#D9DCE3" stroke-width="6" stroke-linecap="round" opacity="0.6"/>
    </g>
    
        </g>
      </g>
    </g>

    <!-- Opt 3 Ivory -->
    <g transform="translate(1920, 0)">
      <text x="440" y="-15" font-family="Montserrat, sans-serif" font-size="16px" font-weight="700" fill="#D9DCE3" letter-spacing="3" text-anchor="middle">OPTION 3 ON IVORY (#FAF7F2) &amp; FAVICON 32</text>
      <g filter="url(#shadow)">
        <rect width="880" height="380" rx="14" fill="#FAF7F2" stroke="#D4D4D8" stroke-width="2"/>
      </g>
      <g transform="translate(300, 190) scale(0.6)">
        
    <g transform="translate(256, 256) scale(1.0)">
      <!-- Kinetic Horizon Speed Ring (Circle turns into highway curve) -->
      <circle cx="0" cy="0" r="165" fill="none" stroke="#0D0D10" stroke-width="3" opacity="0.3"/>
      <path d="M -165,0 C -165,-90 -90,-165 0,-165 C 90,-165 165,-90 165,0 C 165,60 120,165 20,165" fill="none" stroke="#503A70" stroke-width="12" stroke-linecap="round"/>
      <path d="M -165,0 C -165,-90 -90,-165 0,-165 C 90,-165 165,-90 165,0 C 165,60 120,165 20,165" fill="none" stroke="#503A70" stroke-width="4" stroke-linecap="round" opacity="0.9"/>
      <circle cx="20" cy="165" r="8" fill="#503A70"/>

      <!-- Pure, High-Fashion Sturdy Capital 'R' -->
      <g stroke-linecap="round" stroke-linejoin="round">
        <line x1="-40" y1="-85" x2="-40" y2="85" stroke="#0D0D10" stroke-width="26"/>
        <path d="M -40,-85 L 25,-85 C 70,-85 92,-55 92,-20 C 92,15 70,40 25,40 L -40,40" fill="none" stroke="#0D0D10" stroke-width="26"/>
        <path d="M -5,40 L 75,85" stroke="#0D0D10" stroke-width="26"/>
      </g>
    </g>
    
      </g>
      <g transform="translate(680, 190)">
        <rect x="-60" y="-60" width="120" height="120" rx="20" fill="#0D0D10" stroke="#503A70" stroke-width="2"/>
        <text x="0" y="-80" font-family="Montserrat, sans-serif" font-size="13px" fill="#0D0D10" text-anchor="middle">32×32 FAVICON</text>
        <g transform="scale(0.35)">
          
    <g transform="translate(256, 256) scale(1.0)">
      <!-- Kinetic Horizon Speed Ring (Circle turns into highway curve) -->
      <circle cx="0" cy="0" r="165" fill="none" stroke="#D9DCE3" stroke-width="3" opacity="0.3"/>
      <path d="M -165,0 C -165,-90 -90,-165 0,-165 C 90,-165 165,-90 165,0 C 165,60 120,165 20,165" fill="none" stroke="#503A70" stroke-width="12" stroke-linecap="round"/>
      <path d="M -165,0 C -165,-90 -90,-165 0,-165 C 90,-165 165,-90 165,0 C 165,60 120,165 20,165" fill="none" stroke="#8664B0" stroke-width="4" stroke-linecap="round" opacity="0.9"/>
      <circle cx="20" cy="165" r="8" fill="#8664B0"/>

      <!-- Pure, High-Fashion Sturdy Capital 'R' -->
      <g stroke-linecap="round" stroke-linejoin="round">
        <line x1="-40" y1="-85" x2="-40" y2="85" stroke="#D9DCE3" stroke-width="26"/>
        <path d="M -40,-85 L 25,-85 C 70,-85 92,-55 92,-20 C 92,15 70,40 25,40 L -40,40" fill="none" stroke="#D9DCE3" stroke-width="26"/>
        <path d="M -5,40 L 75,85" stroke="#D9DCE3" stroke-width="26"/>
      </g>
    </g>
    
        </g>
      </g>
    </g>

  </g>

  <!-- Footer Info -->
  <text x="1500" y="1930" font-family="Montserrat, sans-serif" font-size="16px" fill="#71717A" letter-spacing="6" text-anchor="middle">RIDELIN MOTORCYCLE ACCESSORIES • WOMEN-FIRST UNISEX PERFORMANCE MOTO GEAR • TEHRAN / IRAN • INSTAGRAM &amp; SOCIAL MONOGRAM SUITE</text>
</svg>