<?xml version="1.0" encoding="UTF-8"?>
<svg xmlns="http://www.w3.org/2000/svg" viewBox="0 0 1200 900" width="100%" height="100%">
  <rect width="1200" height="900" fill="#0B0B0E"/>
  
    <g id="foreground-artwork">
      <!-- 1. Outer Rectangular Border -->
      <rect x="50" y="50" width="1100" height="800" rx="4" fill="none" stroke="#FAF7F2" stroke-width="1.2"/>
      <rect x="62" y="62" width="1076" height="776" rx="2" fill="none" stroke="#FAF7F2" stroke-width="0.6"/>
      
      <!-- 2. Corner Ornaments -->
      <g stroke="#FAF7F2" stroke-width="1.2" fill="none">
        <path d="M 50 88 L 88 50 M 62 88 L 88 62" />
        <circle cx="70" cy="70" r="2.2" fill="#FAF7F2" stroke="none"/>
        <path d="M 1150 88 L 1112 50 M 1138 88 L 1112 62" />
        <circle cx="1130" cy="70" r="2.2" fill="#FAF7F2" stroke="none"/>
        <path d="M 50 812 L 88 850 M 62 812 L 88 838" />
        <circle cx="70" cy="830" r="2.2" fill="#FAF7F2" stroke="none"/>
        <path d="M 1150 812 L 1112 850 M 1138 812 L 1112 838" />
        <circle cx="1130" cy="830" r="2.2" fill="#FAF7F2" stroke="none"/>
      </g>

      <!-- 3. CENTERED LOGO COMPOSITION -->
      <g transform="translate(0, -10)">
        
        <!-- ROYAL SHAMSA + R MONOGRAM CREST (100% HOLLOW NEGATIVE SPACE INSIDE) -->
        <g transform="translate(600, 295) scale(1.08)">
          <g stroke="#FAF7F2" stroke-width="1.6" fill="none">
            <polygon points="0,-82 58,-58 82,0 58,58 0,82 -58,58 -82,0 -58,-58" stroke-width="2.2"/>
            <polygon points="0,-68 48,-48 68,0 48,48 0,68 -48,48 -68,0 -48,-48" stroke-width="1.2"/>
          </g>
          
          <g fill="#FAF7F2" stroke="none">
            <path d="M 0,-94 L 7,-78 L 0,-82 L -7,-78 Z"/>
            <path d="M 0,94 L 7,78 L 0,82 L -7,-78 Z"/>
            <path d="M -94,0 L -78,7 L -82,0 L -78,-7 Z"/>
            <path d="M 94,0 L 78,7 L 82,0 L 78,-7 Z"/>
            
            <path d="M 66,-66 L 50,-55 L 58,-58 L 55,-50 Z"/>
            <path d="M -66,-66 L -50,-55 L -58,-58 L -55,-50 Z"/>
            <path d="M 66,66 L 50,55 L 58,58 L 55,50 Z"/>
            <path d="M -66,66 L -50,-55 L -58,-58 L -55,-50 Z"/>
          </g>

          <!-- Inner Circular Lines & Dotted Circle -->
          <circle cx="0" cy="0" r="54" fill="none" stroke="#FAF7F2" stroke-width="1.2" stroke-dasharray="4 4"/>
          <circle cx="0" cy="0" r="48" fill="none" stroke="#FAF7F2" stroke-width="1.8"/>

          <!-- Letter R Monogram & Diamond Dot -->
          <g fill="#FAF7F2" stroke="none">
            <path d="M -22,-32 L -14,-32 L -14,28 L -22,28 L -22,32 L -4,32 L -4,28 L -10,28 L -10,-28 L -4,-28 L -4,-32 L -22,-32 Z"/>
            <path d="M -10,-32 C 5,-32 24,-33 24,-14 C 24,1 12,6 -4,7 L -10,7 L -10,-32 Z M -6,-28 L -6,3 C 7,3 18,1 18,-13 C 18,-27 7,-28 -6,-28 Z"/>
            <path d="M -1,4 C 6,4 12,14 19,25 C 23,31 27,33 34,32 L 34,28 C 29,29 25,26 21,20 C 14,10 9,1 2,1 L -10,1 L -10,5 L -1,4 Z"/>
            <polygon points="4,-15 6,-13 4,-11 2,-13"/>
          </g>
        </g>

        <!-- RADMAN Wordmark -->
        <text x="600" y="485" font-family="Cinzel, 'Cormorant Garamond', Didot, 'Bodoni MT', Liberation Serif, Times, serif" font-size="68px" font-weight="700" fill="#FAF7F2" text-anchor="middle">
          <tspan x="435">R</tspan><tspan x="501">A</tspan><tspan x="567">D</tspan><tspan x="633">M</tspan><tspan x="699">A</tspan><tspan x="765">N</tspan>
        </text>

        <!-- Center Geometric Ornament -->
        <g transform="translate(600, 538)">
          <path d="M -170,0 L -38,0" stroke="#FAF7F2" stroke-width="1.5" stroke-linecap="round" fill="none"/>
          <circle cx="-170" cy="0" r="2" fill="#FAF7F2" stroke="none"/>
          <polygon points="-110,-3 -107,0 -110,3 -113,0" fill="#FAF7F2" stroke="none"/>
          
          <g fill="#FAF7F2">
            <polygon points="0,-14 5,-5 14,0 5,5 0,14 -5,5 -14,0 -5,-5"/>
            <polygon points="0,-10 7,-7 10,0 7,7 0,10 -7,7 -10,0 -7,-7" fill="none" stroke="#FAF7F2" stroke-width="1.2"/>
            <circle cx="0" cy="0" r="1.8" fill="#FAF7F2" stroke="none"/>
            <polygon points="-24,0 -20,-3.5 -16,0 -20,3.5"/>
            <polygon points="24,0 20,-3.5 16,0 20,3.5"/>
            <circle cx="0" cy="-21" r="1.8" fill="#FAF7F2"/>
            <circle cx="0" cy="21" r="1.8" fill="#FAF7F2"/>
          </g>
          
          <path d="M 38,0 L 170,0" stroke="#FAF7F2" stroke-width="1.5" stroke-linecap="round" fill="none"/>
          <circle cx="170" cy="0" r="2" fill="#FAF7F2" stroke="none"/>
          <polygon points="110,-3 113,0 110,3 107,0" fill="#FAF7F2" stroke="none"/>
        </g>

        <!-- SILVER 925 -->
        <text x="600" y="598" font-family="Montserrat, 'Helvetica Neue', Arial, Liberation Sans, sans-serif" font-size="18px" font-weight="700" fill="#FAF7F2" text-anchor="middle">
          <tspan x="456">S</tspan><tspan x="484">I</tspan><tspan x="512">L</tspan><tspan x="540">V</tspan><tspan x="568">E</tspan><tspan x="596">R</tspan><tspan x="644">9</tspan><tspan x="672">2</tspan><tspan x="700">5</tspan>
        </text>

        <!-- Bottom text: STERLING • MAISON • EST. 2026 (ZERO RECTANGLE BEHIND TEXT!) -->
        <g transform="translate(600, 665)">
          <text x="0" y="6" font-family="Cinzel, 'Cormorant Garamond', Liberation Serif, serif" font-size="13px" font-weight="700" fill="#FAF7F2" letter-spacing="4" text-anchor="middle">STERLING • MAISON • EST. 2026</text>
        </g>

      </g>
    </g>
    
</svg>